<svg width="1103" height="1129" viewBox="0 0 1103 1129" fill="none" xmlns="http://www.w3.org/2000/svg">
<rect x="254.734" y="53.3633" width="820.34" height="814.908" transform="rotate(14.3637 254.734 53.3633)" fill="#8E8D8B"/>
<rect x="318.68" y="20.416" width="820.34" height="814.908" transform="rotate(21.4969 318.68 20.416)" fill="#5E5E5E"/>
<rect x="372.281" width="820.34" height="814.908" transform="rotate(27.1837 372.281 0)" fill="#2F2F2F"/>
<path d="M849.778 223.363C856.378 223.363 862.078 225.763 866.878 230.563C871.678 235.363 874.078 241.063 874.078 247.663V829.063C874.078 835.663 871.678 841.363 866.878 846.163C862.078 850.963 856.378 853.363 849.778 853.363H664.378C657.778 853.363 652.078 850.963 647.278 846.163C642.478 841.363 640.078 835.663 640.078 829.063V637.363H460.078V829.063C460.078 835.663 457.678 841.363 452.878 846.163C448.078 850.963 442.378 853.363 435.778 853.363H250.378C243.778 853.363 238.078 851.263 233.278 847.063C228.478 842.263 226.078 836.263 226.078 829.063V247.663C226.078 241.063 228.478 235.363 233.278 230.563C238.078 225.763 243.778 223.363 250.378 223.363H435.778C442.378 223.363 448.078 225.763 452.878 230.563C457.678 235.363 460.078 241.063 460.078 247.663V432.163H640.078V247.663C640.078 241.063 642.478 235.363 647.278 230.563C652.078 225.763 657.778 223.363 664.378 223.363H849.778Z" fill="#EABA8C"/>
</svg>
