<svg width="1129" height="1129" viewBox="0 0 1129 1129" fill="none" xmlns="http://www.w3.org/2000/svg">
<path d="M1051.49 278.159L274.758 79.2517L77.1679 850.843L853.902 1049.75L1051.49 278.159Z" fill="#8E8D8B"/>
<path d="M1083.27 340.869L337.25 47.0491L45.376 788.132L791.399 1081.95L1083.27 340.869Z" fill="#5E5E5E"/>
<path d="M1102.88 393.392L389.648 27.0947L25.7767 735.608L739.013 1101.91L1102.88 393.392Z" fill="#2F2F2F"/>
<path d="M1121.05 467.745L463.859 8.4165L7.57257 661.254L664.762 1120.58L1121.05 467.745Z" fill="#202020"/>
<path d="M1128.44 531.273L527.359 0.629639L0.229468 597.73L601.31 1128.37L1128.44 531.273Z" fill="#1D1D1D"/>
<path d="M1128.64 593.908L589.977 0L0.00127939 535.092L538.66 1129L1128.64 593.908Z" fill="#8E8D8B"/>
<path d="M1121.75 657.367L653.508 6.49829L6.9489 471.639L475.19 1122.51L1121.75 657.367Z" fill="#5E5E5E"/>
<path d="M1108.97 715.165L711.383 18.8855L19.7137 413.839L417.3 1110.12L1108.97 715.165Z" fill="#2F2F2F"/>
<path d="M1093.5 762.674L758.961 34.0027L35.1152 366.33L369.658 1095L1093.5 762.674Z" fill="#202020"/>
<path d="M1071.87 812.912L809.344 55.3088L56.7577 316.093L319.28 1073.7L1071.87 812.912Z" fill="#1D1D1D"/>
<path d="M1046.12 859.788L856.406 80.7581L82.5352 269.22L272.253 1048.25L1046.12 859.788Z" fill="#8E8D8B"/>
<path d="M1015.94 904.152L900.969 110.64L112.711 224.852L227.684 1018.36L1015.94 904.152Z" fill="#5E5E5E"/>
<path d="M982.756 944.285L941.32 143.559L145.896 184.72L187.332 985.447L982.756 944.285Z" fill="#2F2F2F"/>
<path d="M950.288 977.257L974.523 175.825L178.399 151.751L154.163 953.182L950.288 977.257Z" fill="#202020"/>
<path d="M911.916 1010.05L1007.56 213.974L216.761 118.961L121.115 915.034L911.916 1010.05Z" fill="#1D1D1D"/>
<path d="M884.285 1030.27L1027.94 241.442L244.336 98.7405L100.684 887.565L884.285 1030.27Z" fill="#1D1D1D"/>
<path d="M967.561 960.358L957.469 158.623L161.043 168.649L171.135 970.383L967.561 960.358Z" fill="#2B2E35"/>
<path d="M856.337 245.409C862.788 245.409 868.359 247.754 873.05 252.446C877.742 257.137 880.088 262.709 880.088 269.159V837.418C880.088 843.869 877.742 849.44 873.05 854.132C868.359 858.823 862.788 861.169 856.337 861.169H675.128C668.677 861.169 663.106 858.823 658.414 854.132C653.723 849.44 651.377 843.869 651.377 837.418V650.051H475.445V837.418C475.445 843.869 473.1 849.44 468.408 854.132C463.717 858.823 458.145 861.169 451.695 861.169H270.485C264.034 861.169 258.463 859.116 253.772 855.011C249.08 850.32 246.734 844.455 246.734 837.418V269.159C246.734 262.709 249.08 257.137 253.772 252.446C258.463 247.754 264.034 245.409 270.485 245.409H451.695C458.145 245.409 463.717 247.754 468.408 252.446C473.1 257.137 475.445 262.709 475.445 269.159V449.489H651.377V269.159C651.377 262.709 653.723 257.137 658.414 252.446C663.106 247.754 668.677 245.409 675.128 245.409H856.337Z" fill="#EABA8C"/>
</svg>
