<svg width="875" height="818" viewBox="0 0 875 818" fill="none" xmlns="http://www.w3.org/2000/svg">
<rect width="875" height="818" fill="white"/>
<path d="M82.6136 462V316.545H133.466C143.598 316.545 151.955 318.297 158.537 321.801C165.118 325.258 170.019 329.921 173.239 335.793C176.458 341.616 178.068 348.08 178.068 355.182C178.068 361.432 176.955 366.593 174.73 370.665C172.552 374.737 169.664 377.956 166.065 380.324C162.514 382.691 158.655 384.443 154.489 385.58V387C158.939 387.284 163.414 388.847 167.912 391.688C172.41 394.528 176.174 398.6 179.205 403.903C182.235 409.206 183.75 415.693 183.75 423.364C183.75 430.655 182.093 437.213 178.778 443.037C175.464 448.861 170.232 453.477 163.082 456.886C155.933 460.295 146.629 462 135.17 462H82.6136ZM100.227 446.375H135.17C146.676 446.375 154.844 444.15 159.673 439.699C164.55 435.201 166.989 429.756 166.989 423.364C166.989 418.439 165.734 413.894 163.224 409.727C160.715 405.513 157.14 402.152 152.5 399.642C147.86 397.085 142.367 395.807 136.023 395.807H100.227V446.375ZM100.227 380.466H132.898C138.201 380.466 142.983 379.424 147.244 377.341C151.553 375.258 154.962 372.322 157.472 368.534C160.028 364.746 161.307 360.295 161.307 355.182C161.307 348.79 159.081 343.368 154.631 338.918C150.18 334.42 143.125 332.17 133.466 332.17H100.227V380.466ZM218.658 462H200.192L253.601 316.545H271.783L325.192 462H306.726L263.26 339.557H262.124L218.658 462ZM225.476 405.182H299.908V420.807H225.476V405.182ZM460.348 462V316.545H511.2C521.333 316.545 529.69 318.297 536.271 321.801C542.853 325.258 547.753 329.921 550.973 335.793C554.193 341.616 555.803 348.08 555.803 355.182C555.803 361.432 554.69 366.593 552.464 370.665C550.286 374.737 547.398 377.956 543.8 380.324C540.249 382.691 536.39 384.443 532.223 385.58V387C536.674 387.284 541.148 388.847 545.646 391.688C550.144 394.528 553.909 398.6 556.939 403.903C559.969 409.206 561.484 415.693 561.484 423.364C561.484 430.655 559.827 437.213 556.513 443.037C553.198 448.861 547.966 453.477 540.817 456.886C533.667 460.295 524.363 462 512.905 462H460.348ZM477.962 446.375H512.905C524.411 446.375 532.578 444.15 537.408 439.699C542.285 435.201 544.723 429.756 544.723 423.364C544.723 418.439 543.468 413.894 540.959 409.727C538.449 405.513 534.875 402.152 530.234 399.642C525.594 397.085 520.102 395.807 513.757 395.807H477.962V446.375ZM477.962 380.466H510.632C515.935 380.466 520.717 379.424 524.979 377.341C529.287 375.258 532.696 372.322 535.206 368.534C537.763 364.746 539.041 360.295 539.041 355.182C539.041 348.79 536.816 343.368 532.365 338.918C527.914 334.42 520.859 332.17 511.2 332.17H477.962V380.466ZM590.426 462V316.545H678.21V332.17H608.04V381.318H673.665V396.943H608.04V446.375H679.347V462H590.426ZM709.957 462V316.545H759.105C770.469 316.545 779.796 318.487 787.088 322.369C794.38 326.205 799.777 331.484 803.281 338.207C806.785 344.931 808.537 352.578 808.537 361.148C808.537 369.718 806.785 377.317 803.281 383.946C799.777 390.575 794.403 395.783 787.159 399.571C779.915 403.312 770.658 405.182 759.389 405.182H719.616V389.273H758.821C766.586 389.273 772.836 388.136 777.571 385.864C782.353 383.591 785.81 380.371 787.94 376.205C790.118 371.991 791.207 366.972 791.207 361.148C791.207 355.324 790.118 350.234 787.94 345.878C785.762 341.522 782.282 338.16 777.5 335.793C772.718 333.378 766.397 332.17 758.537 332.17H727.571V462H709.957ZM778.423 396.659L814.219 462H793.764L758.537 396.659H778.423Z" fill="black"/>
<path d="M377.408 382.308C381.061 380.489 385.461 380.259 390.358 381.63C395.255 383.001 400.552 385.946 405.948 390.297C411.343 394.649 416.731 400.321 421.803 406.99C426.876 413.66 431.534 421.196 435.511 429.168C439.488 437.14 442.707 445.392 444.984 453.453C447.26 461.514 448.55 469.226 448.78 476.149C449.009 483.072 448.173 489.07 446.32 493.8C444.468 498.531 441.634 501.902 437.981 503.72L407.694 443.014L377.408 382.308Z" fill="#64533F"/>
<path d="M274.713 467.407C272.152 464.232 270.982 459.987 271.271 454.915C271.561 449.843 273.303 444.043 276.399 437.846C279.495 431.649 283.885 425.177 289.316 418.8C294.748 412.422 301.116 406.263 308.057 400.675C314.997 395.087 322.374 390.179 329.767 386.231C337.159 382.284 344.422 379.374 351.141 377.668C357.86 375.962 363.904 375.493 368.926 376.288C373.949 377.084 377.853 379.127 380.414 382.302L327.564 424.855L274.713 467.407Z" fill="#64533F"/>
<path d="M372.579 380.415C376.999 376.192 380.592 371.196 383.155 365.71C385.718 360.225 387.199 354.358 387.515 348.444C387.831 342.531 386.975 336.686 384.995 331.245C383.016 325.804 379.953 320.872 375.98 316.732C372.007 312.592 367.202 309.323 361.84 307.114C356.478 304.905 350.664 303.797 344.73 303.856C338.796 303.914 332.857 305.136 327.254 307.453C321.65 309.769 316.492 313.135 312.072 317.357L321.545 327.23C324.581 324.33 328.124 322.018 331.973 320.427C335.822 318.835 339.901 317.996 343.977 317.956C348.053 317.916 352.047 318.677 355.73 320.194C359.413 321.712 362.713 323.957 365.442 326.8C368.17 329.644 370.275 333.032 371.634 336.769C372.994 340.506 373.582 344.521 373.365 348.582C373.148 352.644 372.13 356.674 370.37 360.442C368.61 364.21 366.142 367.642 363.106 370.542L372.579 380.415Z" fill="black"/>
<path d="M430.735 315.09L432.427 316.782L435.177 320.66L439.759 326.652L375.348 380.347L365.407 368.452L430.735 315.09Z" fill="black"/>
<path d="M372.153 380.006C376.622 384.178 381.819 387.485 387.448 389.737C393.076 391.988 399.026 393.141 404.957 393.129C410.888 393.118 416.685 391.941 422.015 389.667C427.346 387.394 432.107 384.067 436.026 379.878C439.945 375.688 442.945 370.718 444.855 365.251C446.765 359.783 447.548 353.926 447.159 348.013C446.77 342.1 445.217 336.248 442.588 330.789C439.959 325.331 436.305 320.374 431.836 316.202L422.937 325.715C426.073 328.644 428.637 332.122 430.482 335.953C432.327 339.783 433.417 343.891 433.69 348.04C433.963 352.19 433.414 356.3 432.073 360.137C430.733 363.974 428.627 367.462 425.877 370.402C423.127 373.342 419.786 375.676 416.045 377.272C412.304 378.868 408.236 379.693 404.074 379.702C399.911 379.71 395.736 378.901 391.786 377.321C387.836 375.741 384.189 373.42 381.053 370.492L372.153 380.006Z" fill="black"/>
</svg>
