<svg width="940" height="613" viewBox="0 0 940 613" fill="none" xmlns="http://www.w3.org/2000/svg">
<rect width="940" height="613" rx="45" fill="#EABA8C"/>
<path d="M276.122 322.463V329.171H269.415V322.463H276.122ZM276.122 315.756V322.463H269.415V315.756H276.122ZM276.122 309.049V315.756H269.415V309.049H276.122ZM276.122 302.341V309.049H269.415V302.341H276.122ZM276.122 295.634V302.341H269.415V295.634H276.122ZM276.122 288.927V295.634H269.415V288.927H276.122ZM276.122 282.22V288.927H269.415V282.22H276.122ZM276.122 275.512V282.22H269.415V275.512H276.122ZM276.122 268.805V275.512H269.415V268.805H276.122ZM276.122 262.098V268.805H269.415V262.098H276.122ZM276.122 255.39V262.098H269.415V255.39H276.122ZM282.829 255.39V262.098H276.122V255.39H282.829ZM282.829 262.098V268.805H276.122V262.098H282.829ZM282.829 268.805V275.512H276.122V268.805H282.829ZM282.829 275.512V282.22H276.122V275.512H282.829ZM282.829 282.22V288.927H276.122V282.22H282.829ZM282.829 288.927V295.634H276.122V288.927H282.829ZM282.829 295.634V302.341H276.122V295.634H282.829ZM289.537 302.341V309.049H282.829V302.341H289.537ZM289.537 309.049V315.756H282.829V309.049H289.537ZM289.537 315.756V322.463H282.829V315.756H289.537ZM289.537 322.463V329.171H282.829V322.463H289.537ZM289.537 329.171V335.878H282.829V329.171H289.537ZM289.537 335.878V342.585H282.829V335.878H289.537ZM289.537 342.585V349.293H282.829V342.585H289.537ZM302.951 349.293V356H296.244V349.293H302.951ZM302.951 342.585V349.293H296.244V342.585H302.951ZM302.951 335.878V342.585H296.244V335.878H302.951ZM302.951 329.171V335.878H296.244V329.171H302.951ZM302.951 322.463V329.171H296.244V322.463H302.951ZM302.951 315.756V322.463H296.244V315.756H302.951ZM302.951 309.049V315.756H296.244V309.049H302.951ZM302.951 302.341V309.049H296.244V302.341H302.951ZM296.244 302.341V309.049H289.537V302.341H296.244ZM296.244 295.634V302.341H289.537V295.634H296.244ZM296.244 309.049V315.756H289.537V309.049H296.244ZM296.244 315.756V322.463H289.537V315.756H296.244ZM296.244 322.463V329.171H289.537V322.463H296.244ZM296.244 329.171V335.878H289.537V329.171H296.244ZM296.244 335.878V342.585H289.537V335.878H296.244ZM296.244 342.585V349.293H289.537V342.585H296.244ZM282.829 335.878V342.585H276.122V335.878H282.829ZM282.829 329.171V335.878H276.122V329.171H282.829ZM282.829 322.463V329.171H276.122V322.463H282.829ZM282.829 315.756V322.463H276.122V315.756H282.829ZM282.829 309.049V315.756H276.122V309.049H282.829ZM282.829 302.341V309.049H276.122V302.341H282.829ZM276.122 248.683V255.39H269.415V248.683H276.122ZM296.244 248.683V255.39H289.537V248.683H296.244ZM296.244 255.39V262.098H289.537V255.39H296.244ZM296.244 262.098V268.805H289.537V262.098H296.244ZM296.244 268.805V275.512H289.537V268.805H296.244ZM296.244 275.512V282.22H289.537V275.512H296.244ZM302.951 282.22V288.927H296.244V282.22H302.951ZM302.951 288.927V295.634H296.244V288.927H302.951ZM302.951 295.634V302.341H296.244V295.634H302.951ZM302.951 275.512V282.22H296.244V275.512H302.951ZM302.951 268.805V275.512H296.244V268.805H302.951ZM302.951 262.098V268.805H296.244V262.098H302.951ZM302.951 255.39V262.098H296.244V255.39H302.951ZM302.951 248.683V255.39H296.244V248.683H302.951ZM282.829 248.683V255.39H276.122V248.683H282.829ZM289.537 248.683V255.39H282.829V248.683H289.537ZM289.537 255.39V262.098H282.829V255.39H289.537ZM289.537 262.098V268.805H282.829V262.098H289.537ZM289.537 268.805V275.512H282.829V268.805H289.537ZM289.537 275.512V282.22H282.829V275.512H289.537ZM289.537 282.22V288.927H282.829V282.22H289.537ZM289.537 288.927V295.634H282.829V288.927H289.537ZM289.537 295.634V302.341H282.829V295.634H289.537ZM296.244 288.927V295.634H289.537V288.927H296.244ZM296.244 282.22V288.927H289.537V282.22H296.244ZM356.61 349.293V356H349.902V349.293H356.61ZM356.61 342.585V349.293H349.902V342.585H356.61ZM356.61 335.878V342.585H349.902V335.878H356.61ZM356.61 329.171V335.878H349.902V329.171H356.61ZM356.61 322.463V329.171H349.902V322.463H356.61ZM356.61 315.756V322.463H349.902V315.756H356.61ZM356.61 309.049V315.756H349.902V309.049H356.61ZM370.024 309.049V315.756H363.317V309.049H370.024ZM370.024 315.756V322.463H363.317V315.756H370.024ZM370.024 322.463V329.171H363.317V322.463H370.024ZM370.024 329.171V335.878H363.317V329.171H370.024ZM370.024 335.878V342.585H363.317V335.878H370.024ZM370.024 342.585V349.293H363.317V342.585H370.024ZM383.439 322.463V329.171H376.732V322.463H383.439ZM383.439 315.756V322.463H376.732V315.756H383.439ZM383.439 309.049V315.756H376.732V309.049H383.439ZM376.732 309.049V315.756H370.024V309.049H376.732ZM376.732 315.756V322.463H370.024V315.756H376.732ZM376.732 322.463V329.171H370.024V322.463H376.732ZM376.732 329.171V335.878H370.024V329.171H376.732ZM376.732 335.878V342.585H370.024V335.878H376.732ZM363.317 342.585V349.293H356.61V342.585H363.317ZM363.317 335.878V342.585H356.61V335.878H363.317ZM363.317 329.171V335.878H356.61V329.171H363.317ZM363.317 322.463V329.171H356.61V322.463H363.317ZM363.317 315.756V322.463H356.61V315.756H363.317ZM363.317 309.049V315.756H356.61V309.049H363.317ZM309.659 349.293V356H302.951V349.293H309.659ZM316.366 349.293V356H309.659V349.293H316.366ZM323.073 349.293V356H316.366V349.293H323.073ZM329.78 349.293V356H323.073V349.293H329.78ZM336.488 349.293V356H329.78V349.293H336.488ZM349.902 349.293V356H343.195V349.293H349.902ZM349.902 342.585V349.293H343.195V342.585H349.902ZM336.488 342.585V349.293H329.78V342.585H336.488ZM329.78 342.585V349.293H323.073V342.585H329.78ZM323.073 342.585V349.293H316.366V342.585H323.073ZM316.366 342.585V349.293H309.659V342.585H316.366ZM309.659 342.585V349.293H302.951V342.585H309.659ZM309.659 335.878V342.585H302.951V335.878H309.659ZM316.366 335.878V342.585H309.659V335.878H316.366ZM323.073 335.878V342.585H316.366V335.878H323.073ZM329.78 335.878V342.585H323.073V335.878H329.78ZM336.488 335.878V342.585H329.78V335.878H336.488ZM349.902 335.878V342.585H343.195V335.878H349.902ZM349.902 329.171V335.878H343.195V329.171H349.902ZM336.488 329.171V335.878H329.78V329.171H336.488ZM329.78 329.171V335.878H323.073V329.171H329.78ZM323.073 329.171V335.878H316.366V329.171H323.073ZM316.366 329.171V335.878H309.659V329.171H316.366ZM309.659 329.171V335.878H302.951V329.171H309.659ZM309.659 322.463V329.171H302.951V322.463H309.659ZM349.902 322.463V329.171H343.195V322.463H349.902ZM376.732 221.854V215.146H383.439V221.854H376.732ZM376.732 228.561V221.854H383.439V228.561H376.732ZM376.732 235.268V228.561H383.439V235.268H376.732ZM363.317 235.268V228.561H370.024V235.268H363.317ZM363.317 228.561V221.854H370.024V228.561H363.317ZM363.317 221.854V215.146H370.024V221.854H363.317ZM363.317 215.146V208.439H370.024V215.146H363.317ZM363.317 208.439V201.732H370.024V208.439H363.317ZM363.317 201.732V195.024H370.024V201.732H363.317ZM349.902 195.024V188.317H356.61V195.024H349.902ZM349.902 201.732V195.024H356.61V201.732H349.902ZM349.902 208.439V201.732H356.61V208.439H349.902ZM349.902 215.146V208.439H356.61V215.146H349.902ZM349.902 221.854V215.146H356.61V221.854H349.902ZM349.902 228.561V221.854H356.61V228.561H349.902ZM349.902 235.268V228.561H356.61V235.268H349.902ZM356.61 235.268V228.561H363.317V235.268H356.61ZM356.61 228.561V221.854H363.317V228.561H356.61ZM356.61 221.854V215.146H363.317V221.854H356.61ZM356.61 215.146V208.439H363.317V215.146H356.61ZM356.61 208.439V201.732H363.317V208.439H356.61ZM356.61 201.732V195.024H363.317V201.732H356.61ZM370.024 208.439V201.732H376.732V208.439H370.024ZM370.024 215.146V208.439H376.732V215.146H370.024ZM370.024 221.854V215.146H376.732V221.854H370.024ZM370.024 228.561V221.854H376.732V228.561H370.024ZM370.024 235.268V228.561H376.732V235.268H370.024ZM296.244 195.024V188.317H302.951V195.024H296.244ZM296.244 201.732V195.024H302.951V201.732H296.244ZM296.244 208.439V201.732H302.951V208.439H296.244ZM296.244 215.146V208.439H302.951V215.146H296.244ZM296.244 221.854V215.146H302.951V221.854H296.244ZM296.244 228.561V221.854H302.951V228.561H296.244ZM296.244 235.268V228.561H302.951V235.268H296.244ZM282.829 235.268V228.561H289.537V235.268H282.829ZM282.829 228.561V221.854H289.537V228.561H282.829ZM282.829 221.854V215.146H289.537V221.854H282.829ZM282.829 215.146V208.439H289.537V215.146H282.829ZM282.829 208.439V201.732H289.537V208.439H282.829ZM282.829 201.732V195.024H289.537V201.732H282.829ZM269.415 221.854V215.146H276.122V221.854H269.415ZM269.415 228.561V221.854H276.122V228.561H269.415ZM269.415 235.268V228.561H276.122V235.268H269.415ZM276.122 235.268V228.561H282.829V235.268H276.122ZM276.122 228.561V221.854H282.829V228.561H276.122ZM276.122 221.854V215.146H282.829V221.854H276.122ZM276.122 215.146V208.439H282.829V215.146H276.122ZM276.122 208.439V201.732H282.829V208.439H276.122ZM289.537 201.732V195.024H296.244V201.732H289.537ZM289.537 208.439V201.732H296.244V208.439H289.537ZM289.537 215.146V208.439H296.244V215.146H289.537ZM289.537 221.854V215.146H296.244V221.854H289.537ZM289.537 228.561V221.854H296.244V228.561H289.537ZM289.537 235.268V228.561H296.244V235.268H289.537ZM343.195 195.024V188.317H349.902V195.024H343.195ZM329.78 195.024V188.317H336.488V195.024H329.78ZM323.073 195.024V188.317H329.78V195.024H323.073ZM316.366 195.024V188.317H323.073V195.024H316.366ZM309.659 195.024V188.317H316.366V195.024H309.659ZM302.951 195.024V188.317H309.659V195.024H302.951ZM302.951 201.732V195.024H309.659V201.732H302.951ZM309.659 201.732V195.024H316.366V201.732H309.659ZM316.366 201.732V195.024H323.073V201.732H316.366ZM323.073 201.732V195.024H329.78V201.732H323.073ZM329.78 201.732V195.024H336.488V201.732H329.78ZM343.195 201.732V195.024H349.902V201.732H343.195ZM343.195 208.439V201.732H349.902V208.439H343.195ZM329.78 208.439V201.732H336.488V208.439H329.78ZM323.073 208.439V201.732H329.78V208.439H323.073ZM316.366 208.439V201.732H323.073V208.439H316.366ZM309.659 208.439V201.732H316.366V208.439H309.659ZM302.951 208.439V201.732H309.659V208.439H302.951ZM302.951 215.146V208.439H309.659V215.146H302.951ZM309.659 215.146V208.439H316.366V215.146H309.659ZM316.366 215.146V208.439H323.073V215.146H316.366ZM323.073 215.146V208.439H329.78V215.146H323.073ZM329.78 215.146V208.439H336.488V215.146H329.78ZM343.195 215.146V208.439H349.902V215.146H343.195ZM343.195 221.854V215.146H349.902V221.854H343.195ZM302.951 221.854V215.146H309.659V221.854H302.951ZM276.122 241.976V248.683H269.415V241.976H276.122ZM282.829 241.976V248.683H276.122V241.976H282.829ZM276.122 235.268V241.976H269.415V235.268H276.122ZM296.244 235.268V241.976H289.537V235.268H296.244ZM296.244 241.976V248.683H289.537V241.976H296.244ZM302.951 241.976V248.683H296.244V241.976H302.951ZM302.951 235.268V241.976H296.244V235.268H302.951ZM282.829 235.268V241.976H276.122V235.268H282.829ZM289.537 235.268V241.976H282.829V235.268H289.537ZM289.537 241.976V248.683H282.829V241.976H289.537ZM316.366 322.463V329.171H309.659V322.463H316.366ZM323.073 322.463V329.171H316.366V322.463H323.073ZM329.78 322.463V329.171H323.073V322.463H329.78ZM336.488 322.463V329.171H329.78V322.463H336.488ZM349.902 315.756V322.463H343.195V315.756H349.902ZM309.659 315.756V322.463H302.951V315.756H309.659ZM356.61 302.341V309.049H349.902V302.341H356.61ZM363.317 302.341V309.049H356.61V302.341H363.317ZM370.024 302.341V309.049H363.317V302.341H370.024ZM376.732 302.341V309.049H370.024V302.341H376.732ZM383.439 302.341V309.049H376.732V302.341H383.439ZM309.659 221.854V228.561H302.951V221.854H309.659ZM316.366 215.146V221.854H309.659V215.146H316.366ZM323.073 215.146V221.854H316.366V215.146H323.073ZM329.78 215.146V221.854H323.073V215.146H329.78ZM336.488 215.146V221.854H329.78V215.146H336.488ZM349.902 221.854V228.561H343.195V221.854H349.902ZM356.61 235.268V241.976H349.902V235.268H356.61ZM363.317 235.268V241.976H356.61V235.268H363.317ZM370.024 235.268V241.976H363.317V235.268H370.024ZM376.732 235.268V241.976H370.024V235.268H376.732ZM383.439 235.268V241.976H376.732V235.268H383.439ZM343.195 188.317V195.024H336.488V188.317H343.195ZM343.195 195.024V201.732H336.488V195.024H343.195ZM343.195 201.732V208.439H336.488V201.732H343.195ZM343.195 208.439V215.146H336.488V208.439H343.195ZM343.195 215.146V221.854H336.488V215.146H343.195ZM343.195 322.463V329.171H336.488V322.463H343.195ZM343.195 329.171V335.878H336.488V329.171H343.195ZM343.195 335.878V342.585H336.488V335.878H343.195ZM343.195 342.585V349.293H336.488V342.585H343.195ZM343.195 349.293V356H336.488V349.293H343.195ZM416.845 322.463V329.171H410.137V322.463H416.845ZM416.845 315.756V322.463H410.137V315.756H416.845ZM416.845 309.049V315.756H410.137V309.049H416.845ZM416.845 302.341V309.049H410.137V302.341H416.845ZM416.845 255.39V262.098H410.137V255.39H416.845ZM423.552 255.39V262.098H416.845V255.39H423.552ZM423.552 262.098V268.805H416.845V262.098H423.552ZM423.552 268.805V275.512H416.845V268.805H423.552ZM430.259 302.341V309.049H423.552V302.341H430.259ZM430.259 309.049V315.756H423.552V309.049H430.259ZM430.259 315.756V322.463H423.552V315.756H430.259ZM430.259 322.463V329.171H423.552V322.463H430.259ZM430.259 329.171V335.878H423.552V329.171H430.259ZM430.259 335.878V342.585H423.552V335.878H430.259ZM430.259 342.585V349.293H423.552V342.585H430.259ZM443.674 349.293V356H436.967V349.293H443.674ZM443.674 342.585V349.293H436.967V342.585H443.674ZM443.674 335.878V342.585H436.967V335.878H443.674ZM443.674 329.171V335.878H436.967V329.171H443.674ZM443.674 322.463V329.171H436.967V322.463H443.674ZM443.674 315.756V322.463H436.967V315.756H443.674ZM443.674 309.049V315.756H436.967V309.049H443.674ZM443.674 302.341V309.049H436.967V302.341H443.674ZM436.967 302.341V309.049H430.259V302.341H436.967ZM436.967 309.049V315.756H430.259V309.049H436.967ZM436.967 315.756V322.463H430.259V315.756H436.967ZM436.967 322.463V329.171H430.259V322.463H436.967ZM436.967 329.171V335.878H430.259V329.171H436.967ZM436.967 335.878V342.585H430.259V335.878H436.967ZM436.967 342.585V349.293H430.259V342.585H436.967ZM423.552 335.878V342.585H416.845V335.878H423.552ZM423.552 329.171V335.878H416.845V329.171H423.552ZM423.552 322.463V329.171H416.845V322.463H423.552ZM423.552 315.756V322.463H416.845V315.756H423.552ZM423.552 309.049V315.756H416.845V309.049H423.552ZM423.552 302.341V309.049H416.845V302.341H423.552ZM416.845 248.683V255.39H410.137V248.683H416.845ZM436.967 248.683V255.39H430.259V248.683H436.967ZM436.967 255.39V262.098H430.259V255.39H436.967ZM436.967 262.098V268.805H430.259V262.098H436.967ZM436.967 268.805V275.512H430.259V268.805H436.967ZM436.967 275.512V282.22H430.259V275.512H436.967ZM443.674 282.22V288.927H436.967V282.22H443.674ZM443.674 275.512V282.22H436.967V275.512H443.674ZM443.674 268.805V275.512H436.967V268.805H443.674ZM443.674 262.098V268.805H436.967V262.098H443.674ZM443.674 255.39V262.098H436.967V255.39H443.674ZM443.674 248.683V255.39H436.967V248.683H443.674ZM423.552 248.683V255.39H416.845V248.683H423.552ZM430.259 248.683V255.39H423.552V248.683H430.259ZM430.259 255.39V262.098H423.552V255.39H430.259ZM430.259 262.098V268.805H423.552V262.098H430.259ZM430.259 268.805V275.512H423.552V268.805H430.259ZM430.259 275.512V282.22H423.552V275.512H430.259ZM497.332 349.293V356H490.625V349.293H497.332ZM497.332 342.585V349.293H490.625V342.585H497.332ZM497.332 335.878V342.585H490.625V335.878H497.332ZM497.332 329.171V335.878H490.625V329.171H497.332ZM497.332 322.463V329.171H490.625V322.463H497.332ZM497.332 315.756V322.463H490.625V315.756H497.332ZM497.332 309.049V315.756H490.625V309.049H497.332ZM497.332 302.341V309.049H490.625V302.341H497.332ZM497.332 295.634V302.341H490.625V295.634H497.332ZM497.332 288.927V295.634H490.625V288.927H497.332ZM497.332 282.22V288.927H490.625V282.22H497.332ZM497.332 275.512V282.22H490.625V275.512H497.332ZM497.332 268.805V275.512H490.625V268.805H497.332ZM497.332 262.098V268.805H490.625V262.098H497.332ZM497.332 255.39V262.098H490.625V255.39H497.332ZM504.04 262.098V268.805H497.332V262.098H504.04ZM504.04 268.805V275.512H497.332V268.805H504.04ZM504.04 275.512V282.22H497.332V275.512H504.04ZM504.04 282.22V288.927H497.332V282.22H504.04ZM504.04 288.927V295.634H497.332V288.927H504.04ZM504.04 295.634V302.341H497.332V295.634H504.04ZM510.747 302.341V309.049H504.04V302.341H510.747ZM510.747 309.049V315.756H504.04V309.049H510.747ZM510.747 315.756V322.463H504.04V315.756H510.747ZM510.747 322.463V329.171H504.04V322.463H510.747ZM510.747 329.171V335.878H504.04V329.171H510.747ZM510.747 335.878V342.585H504.04V335.878H510.747ZM510.747 342.585V349.293H504.04V342.585H510.747ZM524.162 322.463V329.171H517.454V322.463H524.162ZM524.162 315.756V322.463H517.454V315.756H524.162ZM524.162 309.049V315.756H517.454V309.049H524.162ZM524.162 302.341V309.049H517.454V302.341H524.162ZM517.454 302.341V309.049H510.747V302.341H517.454ZM517.454 295.634V302.341H510.747V295.634H517.454ZM517.454 309.049V315.756H510.747V309.049H517.454ZM517.454 315.756V322.463H510.747V315.756H517.454ZM517.454 322.463V329.171H510.747V322.463H517.454ZM517.454 329.171V335.878H510.747V329.171H517.454ZM517.454 335.878V342.585H510.747V335.878H517.454ZM504.04 342.585V349.293H497.332V342.585H504.04ZM504.04 335.878V342.585H497.332V335.878H504.04ZM504.04 329.171V335.878H497.332V329.171H504.04ZM504.04 322.463V329.171H497.332V322.463H504.04ZM504.04 315.756V322.463H497.332V315.756H504.04ZM504.04 309.049V315.756H497.332V309.049H504.04ZM504.04 302.341V309.049H497.332V302.341H504.04ZM517.454 275.512V282.22H510.747V275.512H517.454ZM524.162 282.22V288.927H517.454V282.22H524.162ZM524.162 288.927V295.634H517.454V288.927H524.162ZM524.162 295.634V302.341H517.454V295.634H524.162ZM510.747 262.098V268.805H504.04V262.098H510.747ZM510.747 268.805V275.512H504.04V268.805H510.747ZM510.747 275.512V282.22H504.04V275.512H510.747ZM510.747 282.22V288.927H504.04V282.22H510.747ZM510.747 288.927V295.634H504.04V288.927H510.747ZM510.747 295.634V302.341H504.04V295.634H510.747ZM517.454 288.927V295.634H510.747V288.927H517.454ZM517.454 282.22V288.927H510.747V282.22H517.454ZM450.381 349.293V356H443.674V349.293H450.381ZM457.089 349.293V356H450.381V349.293H457.089ZM463.796 349.293V356H457.089V349.293H463.796ZM477.21 349.293V356H470.503V349.293H477.21ZM483.918 349.293V356H477.21V349.293H483.918ZM490.625 349.293V356H483.918V349.293H490.625ZM490.625 342.585V349.293H483.918V342.585H490.625ZM483.918 342.585V349.293H477.21V342.585H483.918ZM477.21 342.585V349.293H470.503V342.585H477.21ZM463.796 342.585V349.293H457.089V342.585H463.796ZM457.089 342.585V349.293H450.381V342.585H457.089ZM450.381 342.585V349.293H443.674V342.585H450.381ZM450.381 335.878V342.585H443.674V335.878H450.381ZM457.089 335.878V342.585H450.381V335.878H457.089ZM463.796 335.878V342.585H457.089V335.878H463.796ZM477.21 335.878V342.585H470.503V335.878H477.21ZM483.918 335.878V342.585H477.21V335.878H483.918ZM490.625 335.878V342.585H483.918V335.878H490.625ZM490.625 329.171V335.878H483.918V329.171H490.625ZM483.918 329.171V335.878H477.21V329.171H483.918ZM477.21 329.171V335.878H470.503V329.171H477.21ZM463.796 329.171V335.878H457.089V329.171H463.796ZM457.089 329.171V335.878H450.381V329.171H457.089ZM450.381 329.171V335.878H443.674V329.171H450.381ZM450.381 322.463V329.171H443.674V322.463H450.381ZM490.625 322.463V329.171H483.918V322.463H490.625ZM517.454 221.854V215.146H524.162V221.854H517.454ZM517.454 228.561V221.854H524.162V228.561H517.454ZM517.454 235.268V228.561H524.162V235.268H517.454ZM504.04 235.268V228.561H510.747V235.268H504.04ZM504.04 228.561V221.854H510.747V228.561H504.04ZM504.04 221.854V215.146H510.747V221.854H504.04ZM504.04 215.146V208.439H510.747V215.146H504.04ZM504.04 208.439V201.732H510.747V208.439H504.04ZM504.04 201.732V195.024H510.747V201.732H504.04ZM490.625 195.024V188.317H497.332V195.024H490.625ZM490.625 201.732V195.024H497.332V201.732H490.625ZM490.625 208.439V201.732H497.332V208.439H490.625ZM490.625 215.146V208.439H497.332V215.146H490.625ZM490.625 221.854V215.146H497.332V221.854H490.625ZM490.625 228.561V221.854H497.332V228.561H490.625ZM490.625 235.268V228.561H497.332V235.268H490.625ZM497.332 235.268V228.561H504.04V235.268H497.332ZM497.332 228.561V221.854H504.04V228.561H497.332ZM497.332 221.854V215.146H504.04V221.854H497.332ZM497.332 215.146V208.439H504.04V215.146H497.332ZM497.332 208.439V201.732H504.04V208.439H497.332ZM497.332 201.732V195.024H504.04V201.732H497.332ZM510.747 208.439V201.732H517.454V208.439H510.747ZM510.747 215.146V208.439H517.454V215.146H510.747ZM510.747 221.854V215.146H517.454V221.854H510.747ZM510.747 228.561V221.854H517.454V228.561H510.747ZM510.747 235.268V228.561H517.454V235.268H510.747ZM436.967 195.024V188.317H443.674V195.024H436.967ZM436.967 201.732V195.024H443.674V201.732H436.967ZM436.967 208.439V201.732H443.674V208.439H436.967ZM436.967 215.146V208.439H443.674V215.146H436.967ZM436.967 221.854V215.146H443.674V221.854H436.967ZM436.967 228.561V221.854H443.674V228.561H436.967ZM436.967 235.268V228.561H443.674V235.268H436.967ZM423.552 235.268V228.561H430.259V235.268H423.552ZM423.552 228.561V221.854H430.259V228.561H423.552ZM423.552 221.854V215.146H430.259V221.854H423.552ZM423.552 215.146V208.439H430.259V215.146H423.552ZM423.552 208.439V201.732H430.259V208.439H423.552ZM423.552 201.732V195.024H430.259V201.732H423.552ZM410.137 221.854V215.146H416.845V221.854H410.137ZM410.137 228.561V221.854H416.845V228.561H410.137ZM410.137 235.268V228.561H416.845V235.268H410.137ZM416.845 235.268V228.561H423.552V235.268H416.845ZM416.845 228.561V221.854H423.552V228.561H416.845ZM416.845 221.854V215.146H423.552V221.854H416.845ZM416.845 215.146V208.439H423.552V215.146H416.845ZM416.845 208.439V201.732H423.552V208.439H416.845ZM430.259 201.732V195.024H436.967V201.732H430.259ZM430.259 208.439V201.732H436.967V208.439H430.259ZM430.259 215.146V208.439H436.967V215.146H430.259ZM430.259 221.854V215.146H436.967V221.854H430.259ZM430.259 228.561V221.854H436.967V228.561H430.259ZM430.259 235.268V228.561H436.967V235.268H430.259ZM483.918 195.024V188.317H490.625V195.024H483.918ZM477.21 195.024V188.317H483.918V195.024H477.21ZM470.503 195.024V188.317H477.21V195.024H470.503ZM457.089 195.024V188.317H463.796V195.024H457.089ZM450.381 195.024V188.317H457.089V195.024H450.381ZM443.674 195.024V188.317H450.381V195.024H443.674ZM443.674 201.732V195.024H450.381V201.732H443.674ZM450.381 201.732V195.024H457.089V201.732H450.381ZM457.089 201.732V195.024H463.796V201.732H457.089ZM470.503 201.732V195.024H477.21V201.732H470.503ZM477.21 201.732V195.024H483.918V201.732H477.21ZM483.918 201.732V195.024H490.625V201.732H483.918ZM483.918 208.439V201.732H490.625V208.439H483.918ZM477.21 208.439V201.732H483.918V208.439H477.21ZM470.503 208.439V201.732H477.21V208.439H470.503ZM457.089 208.439V201.732H463.796V208.439H457.089ZM450.381 208.439V201.732H457.089V208.439H450.381ZM443.674 208.439V201.732H450.381V208.439H443.674ZM443.674 215.146V208.439H450.381V215.146H443.674ZM450.381 215.146V208.439H457.089V215.146H450.381ZM457.089 215.146V208.439H463.796V215.146H457.089ZM470.503 215.146V208.439H477.21V215.146H470.503ZM477.21 215.146V208.439H483.918V215.146H477.21ZM483.918 215.146V208.439H490.625V215.146H483.918ZM483.918 221.854V215.146H490.625V221.854H483.918ZM443.674 221.854V215.146H450.381V221.854H443.674ZM416.845 241.976V248.683H410.137V241.976H416.845ZM423.552 241.976V248.683H416.845V241.976H423.552ZM416.845 235.268V241.976H410.137V235.268H416.845ZM436.967 235.268V241.976H430.259V235.268H436.967ZM436.967 241.976V248.683H430.259V241.976H436.967ZM443.674 241.976V248.683H436.967V241.976H443.674ZM443.674 235.268V241.976H436.967V235.268H443.674ZM423.552 235.268V241.976H416.845V235.268H423.552ZM430.259 235.268V241.976H423.552V235.268H430.259ZM430.259 241.976V248.683H423.552V241.976H430.259ZM457.089 322.463V329.171H450.381V322.463H457.089ZM463.796 322.463V329.171H457.089V322.463H463.796ZM477.21 322.463V329.171H470.503V322.463H477.21ZM483.918 322.463V329.171H477.21V322.463H483.918ZM490.625 315.756V322.463H483.918V315.756H490.625ZM450.381 315.756V322.463H443.674V315.756H450.381ZM457.089 215.146V221.854H450.381V215.146H457.089ZM463.796 215.146V221.854H457.089V215.146H463.796ZM477.21 215.146V221.854H470.503V215.146H477.21ZM483.918 215.146V221.854H477.21V215.146H483.918ZM490.625 221.854V228.561H483.918V221.854H490.625ZM450.381 221.854V228.561H443.674V221.854H450.381ZM463.796 268.805V275.512H457.089V268.805H463.796ZM477.21 268.805V275.512H470.503V268.805H477.21ZM483.918 268.805V275.512H477.21V268.805H483.918ZM490.625 268.805V275.512H483.918V268.805H490.625ZM490.625 275.512V282.22H483.918V275.512H490.625ZM483.918 275.512V282.22H477.21V275.512H483.918ZM477.21 275.512V282.22H470.503V275.512H477.21ZM463.796 275.512V282.22H457.089V275.512H463.796ZM463.796 255.39V262.098H457.089V255.39H463.796ZM477.21 255.39V262.098H470.503V255.39H477.21ZM483.918 255.39V262.098H477.21V255.39H483.918ZM490.625 255.39V262.098H483.918V255.39H490.625ZM490.625 262.098V268.805H483.918V262.098H490.625ZM483.918 262.098V268.805H477.21V262.098H483.918ZM477.21 262.098V268.805H470.503V262.098H477.21ZM463.796 262.098V268.805H457.089V262.098H463.796ZM463.796 282.22V288.927H457.089V282.22H463.796ZM477.21 282.22V288.927H470.503V282.22H477.21ZM483.918 282.22V288.927H477.21V282.22H483.918ZM490.625 282.22V288.927H483.918V282.22H490.625ZM517.454 268.805V275.512H510.747V268.805H517.454ZM490.625 288.927V295.634H483.918V288.927H490.625ZM450.381 255.39V262.098H443.674V255.39H450.381ZM457.089 255.39V262.098H450.381V255.39H457.089ZM450.381 248.683V255.39H443.674V248.683H450.381ZM457.089 262.098V268.805H450.381V262.098H457.089ZM457.089 268.805V275.512H450.381V268.805H457.089ZM457.089 275.512V282.22H450.381V275.512H457.089ZM457.089 282.22V288.927H450.381V282.22H457.089ZM450.381 282.22V288.927H443.674V282.22H450.381ZM450.381 275.512V282.22H443.674V275.512H450.381ZM450.381 268.805V275.512H443.674V268.805H450.381ZM450.381 262.098V268.805H443.674V262.098H450.381ZM470.503 188.317V195.024H463.796V188.317H470.503ZM470.503 195.024V201.732H463.796V195.024H470.503ZM470.503 201.732V208.439H463.796V201.732H470.503ZM470.503 208.439V215.146H463.796V208.439H470.503ZM470.503 215.146V221.854H463.796V215.146H470.503ZM470.503 255.39V262.098H463.796V255.39H470.503ZM470.503 262.098V268.805H463.796V262.098H470.503ZM470.503 268.805V275.512H463.796V268.805H470.503ZM470.503 275.512V282.22H463.796V275.512H470.503ZM470.503 282.22V288.927H463.796V282.22H470.503ZM470.503 322.463V329.171H463.796V322.463H470.503ZM470.503 329.171V335.878H463.796V329.171H470.503ZM470.503 335.878V342.585H463.796V335.878H470.503ZM470.503 342.585V349.293H463.796V342.585H470.503ZM470.503 349.293V356H463.796V349.293H470.503ZM557.567 322.463V329.171H550.86V322.463H557.567ZM557.567 315.756V322.463H550.86V315.756H557.567ZM557.567 309.049V315.756H550.86V309.049H557.567ZM557.567 302.341V309.049H550.86V302.341H557.567ZM557.567 295.634V302.341H550.86V295.634H557.567ZM557.567 288.927V295.634H550.86V288.927H557.567ZM557.567 282.22V288.927H550.86V282.22H557.567ZM557.567 275.512V282.22H550.86V275.512H557.567ZM557.567 268.805V275.512H550.86V268.805H557.567ZM557.567 262.098V268.805H550.86V262.098H557.567ZM557.567 255.39V262.098H550.86V255.39H557.567ZM564.275 255.39V262.098H557.567V255.39H564.275ZM564.275 262.098V268.805H557.567V262.098H564.275ZM564.275 268.805V275.512H557.567V268.805H564.275ZM564.275 275.512V282.22H557.567V275.512H564.275ZM564.275 282.22V288.927H557.567V282.22H564.275ZM564.275 288.927V295.634H557.567V288.927H564.275ZM564.275 295.634V302.341H557.567V295.634H564.275ZM570.982 302.341V309.049H564.275V302.341H570.982ZM570.982 309.049V315.756H564.275V309.049H570.982ZM570.982 315.756V322.463H564.275V315.756H570.982ZM570.982 322.463V329.171H564.275V322.463H570.982ZM570.982 329.171V335.878H564.275V329.171H570.982ZM570.982 335.878V342.585H564.275V335.878H570.982ZM570.982 342.585V349.293H564.275V342.585H570.982ZM584.397 349.293V356H577.689V349.293H584.397ZM584.397 342.585V349.293H577.689V342.585H584.397ZM584.397 335.878V342.585H577.689V335.878H584.397ZM584.397 329.171V335.878H577.689V329.171H584.397ZM584.397 322.463V329.171H577.689V322.463H584.397ZM584.397 315.756V322.463H577.689V315.756H584.397ZM584.397 309.049V315.756H577.689V309.049H584.397ZM584.397 302.341V309.049H577.689V302.341H584.397ZM577.689 302.341V309.049H570.982V302.341H577.689ZM577.689 295.634V302.341H570.982V295.634H577.689ZM577.689 309.049V315.756H570.982V309.049H577.689ZM577.689 315.756V322.463H570.982V315.756H577.689ZM577.689 322.463V329.171H570.982V322.463H577.689ZM577.689 329.171V335.878H570.982V329.171H577.689ZM577.689 335.878V342.585H570.982V335.878H577.689ZM577.689 342.585V349.293H570.982V342.585H577.689ZM564.275 335.878V342.585H557.567V335.878H564.275ZM564.275 329.171V335.878H557.567V329.171H564.275ZM564.275 322.463V329.171H557.567V322.463H564.275ZM564.275 315.756V322.463H557.567V315.756H564.275ZM564.275 309.049V315.756H557.567V309.049H564.275ZM564.275 302.341V309.049H557.567V302.341H564.275ZM557.567 248.683V255.39H550.86V248.683H557.567ZM577.689 248.683V255.39H570.982V248.683H577.689ZM577.689 255.39V262.098H570.982V255.39H577.689ZM577.689 262.098V268.805H570.982V262.098H577.689ZM577.689 268.805V275.512H570.982V268.805H577.689ZM577.689 275.512V282.22H570.982V275.512H577.689ZM584.397 282.22V288.927H577.689V282.22H584.397ZM584.397 288.927V295.634H577.689V288.927H584.397ZM584.397 295.634V302.341H577.689V295.634H584.397ZM584.397 275.512V282.22H577.689V275.512H584.397ZM584.397 268.805V275.512H577.689V268.805H584.397ZM584.397 262.098V268.805H577.689V262.098H584.397ZM584.397 255.39V262.098H577.689V255.39H584.397ZM584.397 248.683V255.39H577.689V248.683H584.397ZM564.275 248.683V255.39H557.567V248.683H564.275ZM570.982 248.683V255.39H564.275V248.683H570.982ZM570.982 255.39V262.098H564.275V255.39H570.982ZM570.982 262.098V268.805H564.275V262.098H570.982ZM570.982 268.805V275.512H564.275V268.805H570.982ZM570.982 275.512V282.22H564.275V275.512H570.982ZM570.982 282.22V288.927H564.275V282.22H570.982ZM570.982 288.927V295.634H564.275V288.927H570.982ZM570.982 295.634V302.341H564.275V295.634H570.982ZM577.689 288.927V295.634H570.982V288.927H577.689ZM577.689 282.22V288.927H570.982V282.22H577.689ZM638.055 349.293V356H631.348V349.293H638.055ZM638.055 342.585V349.293H631.348V342.585H638.055ZM638.055 335.878V342.585H631.348V335.878H638.055ZM638.055 329.171V335.878H631.348V329.171H638.055ZM638.055 322.463V329.171H631.348V322.463H638.055ZM638.055 315.756V322.463H631.348V315.756H638.055ZM638.055 309.049V315.756H631.348V309.049H638.055ZM651.47 309.049V315.756H644.762V309.049H651.47ZM651.47 315.756V322.463H644.762V315.756H651.47ZM651.47 322.463V329.171H644.762V322.463H651.47ZM651.47 329.171V335.878H644.762V329.171H651.47ZM651.47 335.878V342.585H644.762V335.878H651.47ZM651.47 342.585V349.293H644.762V342.585H651.47ZM664.884 322.463V329.171H658.177V322.463H664.884ZM664.884 315.756V322.463H658.177V315.756H664.884ZM664.884 309.049V315.756H658.177V309.049H664.884ZM658.177 309.049V315.756H651.47V309.049H658.177ZM658.177 315.756V322.463H651.47V315.756H658.177ZM658.177 322.463V329.171H651.47V322.463H658.177ZM658.177 329.171V335.878H651.47V329.171H658.177ZM658.177 335.878V342.585H651.47V335.878H658.177ZM644.762 342.585V349.293H638.055V342.585H644.762ZM644.762 335.878V342.585H638.055V335.878H644.762ZM644.762 329.171V335.878H638.055V329.171H644.762ZM644.762 322.463V329.171H638.055V322.463H644.762ZM644.762 315.756V322.463H638.055V315.756H644.762ZM644.762 309.049V315.756H638.055V309.049H644.762ZM591.104 349.293V356H584.397V349.293H591.104ZM597.811 349.293V356H591.104V349.293H597.811ZM604.518 349.293V356H597.811V349.293H604.518ZM611.226 349.293V356H604.518V349.293H611.226ZM624.64 349.293V356H617.933V349.293H624.64ZM631.348 349.293V356H624.64V349.293H631.348ZM631.348 342.585V349.293H624.64V342.585H631.348ZM624.64 342.585V349.293H617.933V342.585H624.64ZM611.226 342.585V349.293H604.518V342.585H611.226ZM604.518 342.585V349.293H597.811V342.585H604.518ZM597.811 342.585V349.293H591.104V342.585H597.811ZM591.104 342.585V349.293H584.397V342.585H591.104ZM591.104 335.878V342.585H584.397V335.878H591.104ZM597.811 335.878V342.585H591.104V335.878H597.811ZM604.518 335.878V342.585H597.811V335.878H604.518ZM611.226 335.878V342.585H604.518V335.878H611.226ZM624.64 335.878V342.585H617.933V335.878H624.64ZM631.348 335.878V342.585H624.64V335.878H631.348ZM631.348 329.171V335.878H624.64V329.171H631.348ZM624.64 329.171V335.878H617.933V329.171H624.64ZM611.226 329.171V335.878H604.518V329.171H611.226ZM604.518 329.171V335.878H597.811V329.171H604.518ZM597.811 329.171V335.878H591.104V329.171H597.811ZM591.104 329.171V335.878H584.397V329.171H591.104ZM591.104 322.463V329.171H584.397V322.463H591.104ZM631.348 322.463V329.171H624.64V322.463H631.348ZM658.177 221.854V215.146H664.884V221.854H658.177ZM658.177 228.561V221.854H664.884V228.561H658.177ZM658.177 235.268V228.561H664.884V235.268H658.177ZM644.762 235.268V228.561H651.47V235.268H644.762ZM644.762 228.561V221.854H651.47V228.561H644.762ZM644.762 221.854V215.146H651.47V221.854H644.762ZM644.762 215.146V208.439H651.47V215.146H644.762ZM644.762 208.439V201.732H651.47V208.439H644.762ZM644.762 201.732V195.024H651.47V201.732H644.762ZM631.348 195.024V188.317H638.055V195.024H631.348ZM631.348 201.732V195.024H638.055V201.732H631.348ZM631.348 208.439V201.732H638.055V208.439H631.348ZM631.348 215.146V208.439H638.055V215.146H631.348ZM631.348 221.854V215.146H638.055V221.854H631.348ZM631.348 228.561V221.854H638.055V228.561H631.348ZM631.348 235.268V228.561H638.055V235.268H631.348ZM638.055 235.268V228.561H644.762V235.268H638.055ZM638.055 228.561V221.854H644.762V228.561H638.055ZM638.055 221.854V215.146H644.762V221.854H638.055ZM638.055 215.146V208.439H644.762V215.146H638.055ZM638.055 208.439V201.732H644.762V208.439H638.055ZM638.055 201.732V195.024H644.762V201.732H638.055ZM651.47 208.439V201.732H658.177V208.439H651.47ZM651.47 215.146V208.439H658.177V215.146H651.47ZM651.47 221.854V215.146H658.177V221.854H651.47ZM651.47 228.561V221.854H658.177V228.561H651.47ZM651.47 235.268V228.561H658.177V235.268H651.47ZM577.689 195.024V188.317H584.397V195.024H577.689ZM577.689 201.732V195.024H584.397V201.732H577.689ZM577.689 208.439V201.732H584.397V208.439H577.689ZM577.689 215.146V208.439H584.397V215.146H577.689ZM577.689 221.854V215.146H584.397V221.854H577.689ZM577.689 228.561V221.854H584.397V228.561H577.689ZM577.689 235.268V228.561H584.397V235.268H577.689ZM564.275 235.268V228.561H570.982V235.268H564.275ZM564.275 228.561V221.854H570.982V228.561H564.275ZM564.275 221.854V215.146H570.982V221.854H564.275ZM564.275 215.146V208.439H570.982V215.146H564.275ZM564.275 208.439V201.732H570.982V208.439H564.275ZM564.275 201.732V195.024H570.982V201.732H564.275ZM550.86 221.854V215.146H557.567V221.854H550.86ZM550.86 228.561V221.854H557.567V228.561H550.86ZM550.86 235.268V228.561H557.567V235.268H550.86ZM557.567 235.268V228.561H564.275V235.268H557.567ZM557.567 228.561V221.854H564.275V228.561H557.567ZM557.567 221.854V215.146H564.275V221.854H557.567ZM557.567 215.146V208.439H564.275V215.146H557.567ZM557.567 208.439V201.732H564.275V208.439H557.567ZM570.982 201.732V195.024H577.689V201.732H570.982ZM570.982 208.439V201.732H577.689V208.439H570.982ZM570.982 215.146V208.439H577.689V215.146H570.982ZM570.982 221.854V215.146H577.689V221.854H570.982ZM570.982 228.561V221.854H577.689V228.561H570.982ZM570.982 235.268V228.561H577.689V235.268H570.982ZM624.64 195.024V188.317H631.348V195.024H624.64ZM617.933 195.024V188.317H624.64V195.024H617.933ZM604.518 195.024V188.317H611.226V195.024H604.518ZM597.811 195.024V188.317H604.518V195.024H597.811ZM591.104 195.024V188.317H597.811V195.024H591.104ZM584.397 195.024V188.317H591.104V195.024H584.397ZM584.397 201.732V195.024H591.104V201.732H584.397ZM591.104 201.732V195.024H597.811V201.732H591.104ZM597.811 201.732V195.024H604.518V201.732H597.811ZM604.518 201.732V195.024H611.226V201.732H604.518ZM617.933 201.732V195.024H624.64V201.732H617.933ZM624.64 201.732V195.024H631.348V201.732H624.64ZM624.64 208.439V201.732H631.348V208.439H624.64ZM617.933 208.439V201.732H624.64V208.439H617.933ZM604.518 208.439V201.732H611.226V208.439H604.518ZM597.811 208.439V201.732H604.518V208.439H597.811ZM591.104 208.439V201.732H597.811V208.439H591.104ZM584.397 208.439V201.732H591.104V208.439H584.397ZM584.397 215.146V208.439H591.104V215.146H584.397ZM591.104 215.146V208.439H597.811V215.146H591.104ZM597.811 215.146V208.439H604.518V215.146H597.811ZM604.518 215.146V208.439H611.226V215.146H604.518ZM617.933 215.146V208.439H624.64V215.146H617.933ZM624.64 215.146V208.439H631.348V215.146H624.64ZM624.64 221.854V215.146H631.348V221.854H624.64ZM584.397 221.854V215.146H591.104V221.854H584.397ZM557.567 241.976V248.683H550.86V241.976H557.567ZM564.275 241.976V248.683H557.567V241.976H564.275ZM557.567 235.268V241.976H550.86V235.268H557.567ZM577.689 235.268V241.976H570.982V235.268H577.689ZM577.689 241.976V248.683H570.982V241.976H577.689ZM584.397 241.976V248.683H577.689V241.976H584.397ZM584.397 235.268V241.976H577.689V235.268H584.397ZM564.275 235.268V241.976H557.567V235.268H564.275ZM570.982 235.268V241.976H564.275V235.268H570.982ZM570.982 241.976V248.683H564.275V241.976H570.982ZM611.226 262.098V268.805H604.518V262.098H611.226ZM611.226 268.805V275.512H604.518V268.805H611.226ZM624.64 268.805V275.512H617.933V268.805H624.64ZM631.348 268.805V275.512H624.64V268.805H631.348ZM638.055 268.805V275.512H631.348V268.805H638.055ZM644.762 268.805V275.512H638.055V268.805H644.762ZM651.47 268.805V275.512H644.762V268.805H651.47ZM658.177 268.805V275.512H651.47V268.805H658.177ZM664.884 262.098V268.805H658.177V262.098H664.884ZM658.177 262.098V268.805H651.47V262.098H658.177ZM651.47 262.098V268.805H644.762V262.098H651.47ZM644.762 262.098V268.805H638.055V262.098H644.762ZM638.055 262.098V268.805H631.348V262.098H638.055ZM631.348 262.098V268.805H624.64V262.098H631.348ZM624.64 262.098V268.805H617.933V262.098H624.64ZM664.884 268.805V275.512H658.177V268.805H664.884ZM664.884 275.512V282.22H658.177V275.512H664.884ZM664.884 282.22V288.927H658.177V282.22H664.884ZM664.884 288.927V295.634H658.177V288.927H664.884ZM664.884 295.634V302.341H658.177V295.634H664.884ZM664.884 302.341V309.049H658.177V302.341H664.884ZM658.177 302.341V309.049H651.47V302.341H658.177ZM651.47 302.341V309.049H644.762V302.341H651.47ZM644.762 302.341V309.049H638.055V302.341H644.762ZM638.055 302.341V309.049H631.348V302.341H638.055ZM638.055 295.634V302.341H631.348V295.634H638.055ZM644.762 295.634V302.341H638.055V295.634H644.762ZM651.47 295.634V302.341H644.762V295.634H651.47ZM658.177 295.634V302.341H651.47V295.634H658.177ZM658.177 288.927V295.634H651.47V288.927H658.177ZM651.47 288.927V295.634H644.762V288.927H651.47ZM644.762 288.927V295.634H638.055V288.927H644.762ZM638.055 288.927V295.634H631.348V288.927H638.055ZM611.226 275.512V282.22H604.518V275.512H611.226ZM611.226 282.22V288.927H604.518V282.22H611.226ZM624.64 282.22V288.927H617.933V282.22H624.64ZM631.348 282.22V288.927H624.64V282.22H631.348ZM638.055 282.22V288.927H631.348V282.22H638.055ZM644.762 282.22V288.927H638.055V282.22H644.762ZM651.47 282.22V288.927H644.762V282.22H651.47ZM658.177 282.22V288.927H651.47V282.22H658.177ZM658.177 275.512V282.22H651.47V275.512H658.177ZM651.47 275.512V282.22H644.762V275.512H651.47ZM644.762 275.512V282.22H638.055V275.512H644.762ZM638.055 275.512V282.22H631.348V275.512H638.055ZM631.348 275.512V282.22H624.64V275.512H631.348ZM624.64 275.512V282.22H617.933V275.512H624.64ZM597.811 322.463V329.171H591.104V322.463H597.811ZM604.518 322.463V329.171H597.811V322.463H604.518ZM611.226 322.463V329.171H604.518V322.463H611.226ZM624.64 322.463V329.171H617.933V322.463H624.64ZM631.348 315.756V322.463H624.64V315.756H631.348ZM591.104 315.756V322.463H584.397V315.756H591.104ZM597.811 215.146V221.854H591.104V215.146H597.811ZM604.518 215.146V221.854H597.811V215.146H604.518ZM611.226 215.146V221.854H604.518V215.146H611.226ZM624.64 215.146V221.854H617.933V215.146H624.64ZM591.104 221.854V228.561H584.397V221.854H591.104ZM631.348 221.854V228.561H624.64V221.854H631.348ZM638.055 235.268V241.976H631.348V235.268H638.055ZM644.762 235.268V241.976H638.055V235.268H644.762ZM651.47 235.268V241.976H644.762V235.268H651.47ZM658.177 235.268V241.976H651.47V235.268H658.177ZM664.884 235.268V241.976H658.177V235.268H664.884ZM611.226 288.927V295.634H604.518V288.927H611.226ZM624.64 288.927V295.634H617.933V288.927H624.64ZM631.348 288.927V295.634H624.64V288.927H631.348ZM617.933 188.317V195.024H611.226V188.317H617.933ZM617.933 195.024V201.732H611.226V195.024H617.933ZM617.933 201.732V208.439H611.226V201.732H617.933ZM617.933 208.439V215.146H611.226V208.439H617.933ZM617.933 215.146V221.854H611.226V215.146H617.933ZM617.933 262.098V268.805H611.226V262.098H617.933ZM617.933 268.805V275.512H611.226V268.805H617.933ZM617.933 275.512V282.22H611.226V275.512H617.933ZM617.933 282.22V288.927H611.226V282.22H617.933ZM617.933 288.927V295.634H611.226V288.927H617.933ZM617.933 322.463V329.171H611.226V322.463H617.933ZM617.933 329.171V335.878H611.226V329.171H617.933ZM617.933 335.878V342.585H611.226V335.878H617.933ZM617.933 342.585V349.293H611.226V342.585H617.933ZM617.933 349.293V356H611.226V349.293H617.933Z" fill="#2F2F2F"/>
</svg>
