<svg width="639" height="713" viewBox="0 0 639 713" fill="none" xmlns="http://www.w3.org/2000/svg">
<rect width="639" height="713" rx="45" fill="#EABA8C"/>
<path d="M88.7805 395.366V403.293H80.8537V395.366H88.7805ZM88.7805 387.439V395.366H80.8537V387.439H88.7805ZM88.7805 379.512V387.439H80.8537V379.512H88.7805ZM88.7805 371.585V379.512H80.8537V371.585H88.7805ZM88.7805 363.659V371.585H80.8537V363.659H88.7805ZM88.7805 355.732V363.659H80.8537V355.732H88.7805ZM88.7805 347.805V355.732H80.8537V347.805H88.7805ZM88.7805 339.878V347.805H80.8537V339.878H88.7805ZM88.7805 331.951V339.878H80.8537V331.951H88.7805ZM88.7805 324.024V331.951H80.8537V324.024H88.7805ZM88.7805 316.098V324.024H80.8537V316.098H88.7805ZM96.7073 316.098V324.024H88.7805V316.098H96.7073ZM96.7073 324.024V331.951H88.7805V324.024H96.7073ZM96.7073 331.951V339.878H88.7805V331.951H96.7073ZM96.7073 339.878V347.805H88.7805V339.878H96.7073ZM96.7073 347.805V355.732H88.7805V347.805H96.7073ZM96.7073 355.732V363.659H88.7805V355.732H96.7073ZM96.7073 363.659V371.585H88.7805V363.659H96.7073ZM104.634 371.585V379.512H96.7073V371.585H104.634ZM104.634 379.512V387.439H96.7073V379.512H104.634ZM104.634 387.439V395.366H96.7073V387.439H104.634ZM104.634 395.366V403.293H96.7073V395.366H104.634ZM104.634 403.293V411.22H96.7073V403.293H104.634ZM104.634 411.22V419.146H96.7073V411.22H104.634ZM104.634 419.146V427.073H96.7073V419.146H104.634ZM120.488 427.073V435H112.561V427.073H120.488ZM120.488 419.146V427.073H112.561V419.146H120.488ZM120.488 411.22V419.146H112.561V411.22H120.488ZM120.488 403.293V411.22H112.561V403.293H120.488ZM120.488 395.366V403.293H112.561V395.366H120.488ZM120.488 387.439V395.366H112.561V387.439H120.488ZM120.488 379.512V387.439H112.561V379.512H120.488ZM120.488 371.585V379.512H112.561V371.585H120.488ZM112.561 371.585V379.512H104.634V371.585H112.561ZM112.561 363.659V371.585H104.634V363.659H112.561ZM112.561 379.512V387.439H104.634V379.512H112.561ZM112.561 387.439V395.366H104.634V387.439H112.561ZM112.561 395.366V403.293H104.634V395.366H112.561ZM112.561 403.293V411.22H104.634V403.293H112.561ZM112.561 411.22V419.146H104.634V411.22H112.561ZM112.561 419.146V427.073H104.634V419.146H112.561ZM96.7073 411.22V419.146H88.7805V411.22H96.7073ZM96.7073 403.293V411.22H88.7805V403.293H96.7073ZM96.7073 395.366V403.293H88.7805V395.366H96.7073ZM96.7073 387.439V395.366H88.7805V387.439H96.7073ZM96.7073 379.512V387.439H88.7805V379.512H96.7073ZM96.7073 371.585V379.512H88.7805V371.585H96.7073ZM88.7805 308.171V316.098H80.8537V308.171H88.7805ZM112.561 308.171V316.098H104.634V308.171H112.561ZM112.561 316.098V324.024H104.634V316.098H112.561ZM112.561 324.024V331.951H104.634V324.024H112.561ZM112.561 331.951V339.878H104.634V331.951H112.561ZM112.561 339.878V347.805H104.634V339.878H112.561ZM120.488 347.805V355.732H112.561V347.805H120.488ZM120.488 355.732V363.659H112.561V355.732H120.488ZM120.488 363.659V371.585H112.561V363.659H120.488ZM120.488 339.878V347.805H112.561V339.878H120.488ZM120.488 331.951V339.878H112.561V331.951H120.488ZM120.488 324.024V331.951H112.561V324.024H120.488ZM120.488 316.098V324.024H112.561V316.098H120.488ZM120.488 308.171V316.098H112.561V308.171H120.488ZM96.7073 308.171V316.098H88.7805V308.171H96.7073ZM104.634 308.171V316.098H96.7073V308.171H104.634ZM104.634 316.098V324.024H96.7073V316.098H104.634ZM104.634 324.024V331.951H96.7073V324.024H104.634ZM104.634 331.951V339.878H96.7073V331.951H104.634ZM104.634 339.878V347.805H96.7073V339.878H104.634ZM104.634 347.805V355.732H96.7073V347.805H104.634ZM104.634 355.732V363.659H96.7073V355.732H104.634ZM104.634 363.659V371.585H96.7073V363.659H104.634ZM112.561 355.732V363.659H104.634V355.732H112.561ZM112.561 347.805V355.732H104.634V347.805H112.561ZM183.902 427.073V435H175.976V427.073H183.902ZM183.902 419.146V427.073H175.976V419.146H183.902ZM183.902 411.22V419.146H175.976V411.22H183.902ZM183.902 403.293V411.22H175.976V403.293H183.902ZM183.902 395.366V403.293H175.976V395.366H183.902ZM183.902 387.439V395.366H175.976V387.439H183.902ZM183.902 379.512V387.439H175.976V379.512H183.902ZM199.756 379.512V387.439H191.829V379.512H199.756ZM199.756 387.439V395.366H191.829V387.439H199.756ZM199.756 395.366V403.293H191.829V395.366H199.756ZM199.756 403.293V411.22H191.829V403.293H199.756ZM199.756 411.22V419.146H191.829V411.22H199.756ZM199.756 419.146V427.073H191.829V419.146H199.756ZM215.61 395.366V403.293H207.683V395.366H215.61ZM215.61 387.439V395.366H207.683V387.439H215.61ZM215.61 379.512V387.439H207.683V379.512H215.61ZM207.683 379.512V387.439H199.756V379.512H207.683ZM207.683 387.439V395.366H199.756V387.439H207.683ZM207.683 395.366V403.293H199.756V395.366H207.683ZM207.683 403.293V411.22H199.756V403.293H207.683ZM207.683 411.22V419.146H199.756V411.22H207.683ZM191.829 419.146V427.073H183.902V419.146H191.829ZM191.829 411.22V419.146H183.902V411.22H191.829ZM191.829 403.293V411.22H183.902V403.293H191.829ZM191.829 395.366V403.293H183.902V395.366H191.829ZM191.829 387.439V395.366H183.902V387.439H191.829ZM191.829 379.512V387.439H183.902V379.512H191.829ZM128.415 427.073V435H120.488V427.073H128.415ZM136.341 427.073V435H128.415V427.073H136.341ZM144.268 427.073V435H136.341V427.073H144.268ZM152.195 427.073V435H144.268V427.073H152.195ZM160.122 427.073V435H152.195V427.073H160.122ZM175.976 427.073V435H168.049V427.073H175.976ZM175.976 419.146V427.073H168.049V419.146H175.976ZM160.122 419.146V427.073H152.195V419.146H160.122ZM152.195 419.146V427.073H144.268V419.146H152.195ZM144.268 419.146V427.073H136.341V419.146H144.268ZM136.341 419.146V427.073H128.415V419.146H136.341ZM128.415 419.146V427.073H120.488V419.146H128.415ZM128.415 411.22V419.146H120.488V411.22H128.415ZM136.341 411.22V419.146H128.415V411.22H136.341ZM144.268 411.22V419.146H136.341V411.22H144.268ZM152.195 411.22V419.146H144.268V411.22H152.195ZM160.122 411.22V419.146H152.195V411.22H160.122ZM175.976 411.22V419.146H168.049V411.22H175.976ZM175.976 403.293V411.22H168.049V403.293H175.976ZM160.122 403.293V411.22H152.195V403.293H160.122ZM152.195 403.293V411.22H144.268V403.293H152.195ZM144.268 403.293V411.22H136.341V403.293H144.268ZM136.341 403.293V411.22H128.415V403.293H136.341ZM128.415 403.293V411.22H120.488V403.293H128.415ZM128.415 395.366V403.293H120.488V395.366H128.415ZM175.976 395.366V403.293H168.049V395.366H175.976ZM207.683 276.463V268.537H215.61V276.463H207.683ZM207.683 284.39V276.463H215.61V284.39H207.683ZM207.683 292.317V284.39H215.61V292.317H207.683ZM191.829 292.317V284.39H199.756V292.317H191.829ZM191.829 284.39V276.463H199.756V284.39H191.829ZM191.829 276.463V268.537H199.756V276.463H191.829ZM191.829 268.537V260.61H199.756V268.537H191.829ZM191.829 260.61V252.683H199.756V260.61H191.829ZM191.829 252.683V244.756H199.756V252.683H191.829ZM175.976 244.756V236.829H183.902V244.756H175.976ZM175.976 252.683V244.756H183.902V252.683H175.976ZM175.976 260.61V252.683H183.902V260.61H175.976ZM175.976 268.537V260.61H183.902V268.537H175.976ZM175.976 276.463V268.537H183.902V276.463H175.976ZM175.976 284.39V276.463H183.902V284.39H175.976ZM175.976 292.317V284.39H183.902V292.317H175.976ZM183.902 292.317V284.39H191.829V292.317H183.902ZM183.902 284.39V276.463H191.829V284.39H183.902ZM183.902 276.463V268.537H191.829V276.463H183.902ZM183.902 268.537V260.61H191.829V268.537H183.902ZM183.902 260.61V252.683H191.829V260.61H183.902ZM183.902 252.683V244.756H191.829V252.683H183.902ZM199.756 260.61V252.683H207.683V260.61H199.756ZM199.756 268.537V260.61H207.683V268.537H199.756ZM199.756 276.463V268.537H207.683V276.463H199.756ZM199.756 284.39V276.463H207.683V284.39H199.756ZM199.756 292.317V284.39H207.683V292.317H199.756ZM112.561 244.756V236.829H120.488V244.756H112.561ZM112.561 252.683V244.756H120.488V252.683H112.561ZM112.561 260.61V252.683H120.488V260.61H112.561ZM112.561 268.537V260.61H120.488V268.537H112.561ZM112.561 276.463V268.537H120.488V276.463H112.561ZM112.561 284.39V276.463H120.488V284.39H112.561ZM112.561 292.317V284.39H120.488V292.317H112.561ZM96.7073 292.317V284.39H104.634V292.317H96.7073ZM96.7073 284.39V276.463H104.634V284.39H96.7073ZM96.7073 276.463V268.537H104.634V276.463H96.7073ZM96.7073 268.537V260.61H104.634V268.537H96.7073ZM96.7073 260.61V252.683H104.634V260.61H96.7073ZM96.7073 252.683V244.756H104.634V252.683H96.7073ZM80.8537 276.463V268.537H88.7805V276.463H80.8537ZM80.8537 284.39V276.463H88.7805V284.39H80.8537ZM80.8537 292.317V284.39H88.7805V292.317H80.8537ZM88.7805 292.317V284.39H96.7073V292.317H88.7805ZM88.7805 284.39V276.463H96.7073V284.39H88.7805ZM88.7805 276.463V268.537H96.7073V276.463H88.7805ZM88.7805 268.537V260.61H96.7073V268.537H88.7805ZM88.7805 260.61V252.683H96.7073V260.61H88.7805ZM104.634 252.683V244.756H112.561V252.683H104.634ZM104.634 260.61V252.683H112.561V260.61H104.634ZM104.634 268.537V260.61H112.561V268.537H104.634ZM104.634 276.463V268.537H112.561V276.463H104.634ZM104.634 284.39V276.463H112.561V284.39H104.634ZM104.634 292.317V284.39H112.561V292.317H104.634ZM168.049 244.756V236.829H175.976V244.756H168.049ZM152.195 244.756V236.829H160.122V244.756H152.195ZM144.268 244.756V236.829H152.195V244.756H144.268ZM136.341 244.756V236.829H144.268V244.756H136.341ZM128.415 244.756V236.829H136.341V244.756H128.415ZM120.488 244.756V236.829H128.415V244.756H120.488ZM120.488 252.683V244.756H128.415V252.683H120.488ZM128.415 252.683V244.756H136.341V252.683H128.415ZM136.341 252.683V244.756H144.268V252.683H136.341ZM144.268 252.683V244.756H152.195V252.683H144.268ZM152.195 252.683V244.756H160.122V252.683H152.195ZM168.049 252.683V244.756H175.976V252.683H168.049ZM168.049 260.61V252.683H175.976V260.61H168.049ZM152.195 260.61V252.683H160.122V260.61H152.195ZM144.268 260.61V252.683H152.195V260.61H144.268ZM136.341 260.61V252.683H144.268V260.61H136.341ZM128.415 260.61V252.683H136.341V260.61H128.415ZM120.488 260.61V252.683H128.415V260.61H120.488ZM120.488 268.537V260.61H128.415V268.537H120.488ZM128.415 268.537V260.61H136.341V268.537H128.415ZM136.341 268.537V260.61H144.268V268.537H136.341ZM144.268 268.537V260.61H152.195V268.537H144.268ZM152.195 268.537V260.61H160.122V268.537H152.195ZM168.049 268.537V260.61H175.976V268.537H168.049ZM168.049 276.463V268.537H175.976V276.463H168.049ZM120.488 276.463V268.537H128.415V276.463H120.488ZM88.7805 300.244V308.171H80.8537V300.244H88.7805ZM96.7073 300.244V308.171H88.7805V300.244H96.7073ZM88.7805 292.317V300.244H80.8537V292.317H88.7805ZM112.561 292.317V300.244H104.634V292.317H112.561ZM112.561 300.244V308.171H104.634V300.244H112.561ZM120.488 300.244V308.171H112.561V300.244H120.488ZM120.488 292.317V300.244H112.561V292.317H120.488ZM96.7073 292.317V300.244H88.7805V292.317H96.7073ZM104.634 292.317V300.244H96.7073V292.317H104.634ZM104.634 300.244V308.171H96.7073V300.244H104.634ZM136.341 395.366V403.293H128.415V395.366H136.341ZM144.268 395.366V403.293H136.341V395.366H144.268ZM152.195 395.366V403.293H144.268V395.366H152.195ZM160.122 395.366V403.293H152.195V395.366H160.122ZM175.976 387.439V395.366H168.049V387.439H175.976ZM128.415 387.439V395.366H120.488V387.439H128.415ZM183.902 371.585V379.512H175.976V371.585H183.902ZM191.829 371.585V379.512H183.902V371.585H191.829ZM199.756 371.585V379.512H191.829V371.585H199.756ZM207.683 371.585V379.512H199.756V371.585H207.683ZM215.61 371.585V379.512H207.683V371.585H215.61ZM128.415 276.463V284.39H120.488V276.463H128.415ZM136.341 268.537V276.463H128.415V268.537H136.341ZM144.268 268.537V276.463H136.341V268.537H144.268ZM152.195 268.537V276.463H144.268V268.537H152.195ZM160.122 268.537V276.463H152.195V268.537H160.122ZM175.976 276.463V284.39H168.049V276.463H175.976ZM183.902 292.317V300.244H175.976V292.317H183.902ZM191.829 292.317V300.244H183.902V292.317H191.829ZM199.756 292.317V300.244H191.829V292.317H199.756ZM207.683 292.317V300.244H199.756V292.317H207.683ZM215.61 292.317V300.244H207.683V292.317H215.61ZM168.049 236.829V244.756H160.122V236.829H168.049ZM168.049 244.756V252.683H160.122V244.756H168.049ZM168.049 252.683V260.61H160.122V252.683H168.049ZM168.049 260.61V268.537H160.122V260.61H168.049ZM168.049 268.537V276.463H160.122V268.537H168.049ZM168.049 395.366V403.293H160.122V395.366H168.049ZM168.049 403.293V411.22H160.122V403.293H168.049ZM168.049 411.22V419.146H160.122V411.22H168.049ZM168.049 419.146V427.073H160.122V419.146H168.049ZM168.049 427.073V435H160.122V427.073H168.049ZM255.089 395.366V403.293H247.162V395.366H255.089ZM255.089 387.439V395.366H247.162V387.439H255.089ZM255.089 379.512V387.439H247.162V379.512H255.089ZM255.089 371.585V379.512H247.162V371.585H255.089ZM255.089 316.098V324.024H247.162V316.098H255.089ZM263.016 316.098V324.024H255.089V316.098H263.016ZM263.016 324.024V331.951H255.089V324.024H263.016ZM263.016 331.951V339.878H255.089V331.951H263.016ZM270.943 371.585V379.512H263.016V371.585H270.943ZM270.943 379.512V387.439H263.016V379.512H270.943ZM270.943 387.439V395.366H263.016V387.439H270.943ZM270.943 395.366V403.293H263.016V395.366H270.943ZM270.943 403.293V411.22H263.016V403.293H270.943ZM270.943 411.22V419.146H263.016V411.22H270.943ZM270.943 419.146V427.073H263.016V419.146H270.943ZM286.796 427.073V435H278.87V427.073H286.796ZM286.796 419.146V427.073H278.87V419.146H286.796ZM286.796 411.22V419.146H278.87V411.22H286.796ZM286.796 403.293V411.22H278.87V403.293H286.796ZM286.796 395.366V403.293H278.87V395.366H286.796ZM286.796 387.439V395.366H278.87V387.439H286.796ZM286.796 379.512V387.439H278.87V379.512H286.796ZM286.796 371.585V379.512H278.87V371.585H286.796ZM278.87 371.585V379.512H270.943V371.585H278.87ZM278.87 379.512V387.439H270.943V379.512H278.87ZM278.87 387.439V395.366H270.943V387.439H278.87ZM278.87 395.366V403.293H270.943V395.366H278.87ZM278.87 403.293V411.22H270.943V403.293H278.87ZM278.87 411.22V419.146H270.943V411.22H278.87ZM278.87 419.146V427.073H270.943V419.146H278.87ZM263.016 411.22V419.146H255.089V411.22H263.016ZM263.016 403.293V411.22H255.089V403.293H263.016ZM263.016 395.366V403.293H255.089V395.366H263.016ZM263.016 387.439V395.366H255.089V387.439H263.016ZM263.016 379.512V387.439H255.089V379.512H263.016ZM263.016 371.585V379.512H255.089V371.585H263.016ZM255.089 308.171V316.098H247.162V308.171H255.089ZM278.87 308.171V316.098H270.943V308.171H278.87ZM278.87 316.098V324.024H270.943V316.098H278.87ZM278.87 324.024V331.951H270.943V324.024H278.87ZM278.87 331.951V339.878H270.943V331.951H278.87ZM278.87 339.878V347.805H270.943V339.878H278.87ZM286.796 347.805V355.732H278.87V347.805H286.796ZM286.796 339.878V347.805H278.87V339.878H286.796ZM286.796 331.951V339.878H278.87V331.951H286.796ZM286.796 324.024V331.951H278.87V324.024H286.796ZM286.796 316.098V324.024H278.87V316.098H286.796ZM286.796 308.171V316.098H278.87V308.171H286.796ZM263.016 308.171V316.098H255.089V308.171H263.016ZM270.943 308.171V316.098H263.016V308.171H270.943ZM270.943 316.098V324.024H263.016V316.098H270.943ZM270.943 324.024V331.951H263.016V324.024H270.943ZM270.943 331.951V339.878H263.016V331.951H270.943ZM270.943 339.878V347.805H263.016V339.878H270.943ZM350.211 427.073V435H342.284V427.073H350.211ZM350.211 419.146V427.073H342.284V419.146H350.211ZM350.211 411.22V419.146H342.284V411.22H350.211ZM350.211 403.293V411.22H342.284V403.293H350.211ZM350.211 395.366V403.293H342.284V395.366H350.211ZM350.211 387.439V395.366H342.284V387.439H350.211ZM350.211 379.512V387.439H342.284V379.512H350.211ZM350.211 371.585V379.512H342.284V371.585H350.211ZM350.211 363.659V371.585H342.284V363.659H350.211ZM350.211 355.732V363.659H342.284V355.732H350.211ZM350.211 347.805V355.732H342.284V347.805H350.211ZM350.211 339.878V347.805H342.284V339.878H350.211ZM350.211 331.951V339.878H342.284V331.951H350.211ZM350.211 324.024V331.951H342.284V324.024H350.211ZM350.211 316.098V324.024H342.284V316.098H350.211ZM358.138 324.024V331.951H350.211V324.024H358.138ZM358.138 331.951V339.878H350.211V331.951H358.138ZM358.138 339.878V347.805H350.211V339.878H358.138ZM358.138 347.805V355.732H350.211V347.805H358.138ZM358.138 355.732V363.659H350.211V355.732H358.138ZM358.138 363.659V371.585H350.211V363.659H358.138ZM366.065 371.585V379.512H358.138V371.585H366.065ZM366.065 379.512V387.439H358.138V379.512H366.065ZM366.065 387.439V395.366H358.138V387.439H366.065ZM366.065 395.366V403.293H358.138V395.366H366.065ZM366.065 403.293V411.22H358.138V403.293H366.065ZM366.065 411.22V419.146H358.138V411.22H366.065ZM366.065 419.146V427.073H358.138V419.146H366.065ZM381.918 395.366V403.293H373.992V395.366H381.918ZM381.918 387.439V395.366H373.992V387.439H381.918ZM381.918 379.512V387.439H373.992V379.512H381.918ZM381.918 371.585V379.512H373.992V371.585H381.918ZM373.992 371.585V379.512H366.065V371.585H373.992ZM373.992 363.659V371.585H366.065V363.659H373.992ZM373.992 379.512V387.439H366.065V379.512H373.992ZM373.992 387.439V395.366H366.065V387.439H373.992ZM373.992 395.366V403.293H366.065V395.366H373.992ZM373.992 403.293V411.22H366.065V403.293H373.992ZM373.992 411.22V419.146H366.065V411.22H373.992ZM358.138 419.146V427.073H350.211V419.146H358.138ZM358.138 411.22V419.146H350.211V411.22H358.138ZM358.138 403.293V411.22H350.211V403.293H358.138ZM358.138 395.366V403.293H350.211V395.366H358.138ZM358.138 387.439V395.366H350.211V387.439H358.138ZM358.138 379.512V387.439H350.211V379.512H358.138ZM358.138 371.585V379.512H350.211V371.585H358.138ZM373.992 339.878V347.805H366.065V339.878H373.992ZM381.918 347.805V355.732H373.992V347.805H381.918ZM381.918 355.732V363.659H373.992V355.732H381.918ZM381.918 363.659V371.585H373.992V363.659H381.918ZM366.065 324.024V331.951H358.138V324.024H366.065ZM366.065 331.951V339.878H358.138V331.951H366.065ZM366.065 339.878V347.805H358.138V339.878H366.065ZM366.065 347.805V355.732H358.138V347.805H366.065ZM366.065 355.732V363.659H358.138V355.732H366.065ZM366.065 363.659V371.585H358.138V363.659H366.065ZM373.992 355.732V363.659H366.065V355.732H373.992ZM373.992 347.805V355.732H366.065V347.805H373.992ZM294.723 427.073V435H286.796V427.073H294.723ZM302.65 427.073V435H294.723V427.073H302.65ZM310.577 427.073V435H302.65V427.073H310.577ZM326.431 427.073V435H318.504V427.073H326.431ZM334.357 427.073V435H326.431V427.073H334.357ZM342.284 427.073V435H334.357V427.073H342.284ZM342.284 419.146V427.073H334.357V419.146H342.284ZM334.357 419.146V427.073H326.431V419.146H334.357ZM326.431 419.146V427.073H318.504V419.146H326.431ZM310.577 419.146V427.073H302.65V419.146H310.577ZM302.65 419.146V427.073H294.723V419.146H302.65ZM294.723 419.146V427.073H286.796V419.146H294.723ZM294.723 411.22V419.146H286.796V411.22H294.723ZM302.65 411.22V419.146H294.723V411.22H302.65ZM310.577 411.22V419.146H302.65V411.22H310.577ZM326.431 411.22V419.146H318.504V411.22H326.431ZM334.357 411.22V419.146H326.431V411.22H334.357ZM342.284 411.22V419.146H334.357V411.22H342.284ZM342.284 403.293V411.22H334.357V403.293H342.284ZM334.357 403.293V411.22H326.431V403.293H334.357ZM326.431 403.293V411.22H318.504V403.293H326.431ZM310.577 403.293V411.22H302.65V403.293H310.577ZM302.65 403.293V411.22H294.723V403.293H302.65ZM294.723 403.293V411.22H286.796V403.293H294.723ZM294.723 395.366V403.293H286.796V395.366H294.723ZM342.284 395.366V403.293H334.357V395.366H342.284ZM373.992 276.463V268.537H381.918V276.463H373.992ZM373.992 284.39V276.463H381.918V284.39H373.992ZM373.992 292.317V284.39H381.918V292.317H373.992ZM358.138 292.317V284.39H366.065V292.317H358.138ZM358.138 284.39V276.463H366.065V284.39H358.138ZM358.138 276.463V268.537H366.065V276.463H358.138ZM358.138 268.537V260.61H366.065V268.537H358.138ZM358.138 260.61V252.683H366.065V260.61H358.138ZM358.138 252.683V244.756H366.065V252.683H358.138ZM342.284 244.756V236.829H350.211V244.756H342.284ZM342.284 252.683V244.756H350.211V252.683H342.284ZM342.284 260.61V252.683H350.211V260.61H342.284ZM342.284 268.537V260.61H350.211V268.537H342.284ZM342.284 276.463V268.537H350.211V276.463H342.284ZM342.284 284.39V276.463H350.211V284.39H342.284ZM342.284 292.317V284.39H350.211V292.317H342.284ZM350.211 292.317V284.39H358.138V292.317H350.211ZM350.211 284.39V276.463H358.138V284.39H350.211ZM350.211 276.463V268.537H358.138V276.463H350.211ZM350.211 268.537V260.61H358.138V268.537H350.211ZM350.211 260.61V252.683H358.138V260.61H350.211ZM350.211 252.683V244.756H358.138V252.683H350.211ZM366.065 260.61V252.683H373.992V260.61H366.065ZM366.065 268.537V260.61H373.992V268.537H366.065ZM366.065 276.463V268.537H373.992V276.463H366.065ZM366.065 284.39V276.463H373.992V284.39H366.065ZM366.065 292.317V284.39H373.992V292.317H366.065ZM278.87 244.756V236.829H286.796V244.756H278.87ZM278.87 252.683V244.756H286.796V252.683H278.87ZM278.87 260.61V252.683H286.796V260.61H278.87ZM278.87 268.537V260.61H286.796V268.537H278.87ZM278.87 276.463V268.537H286.796V276.463H278.87ZM278.87 284.39V276.463H286.796V284.39H278.87ZM278.87 292.317V284.39H286.796V292.317H278.87ZM263.016 292.317V284.39H270.943V292.317H263.016ZM263.016 284.39V276.463H270.943V284.39H263.016ZM263.016 276.463V268.537H270.943V276.463H263.016ZM263.016 268.537V260.61H270.943V268.537H263.016ZM263.016 260.61V252.683H270.943V260.61H263.016ZM263.016 252.683V244.756H270.943V252.683H263.016ZM247.162 276.463V268.537H255.089V276.463H247.162ZM247.162 284.39V276.463H255.089V284.39H247.162ZM247.162 292.317V284.39H255.089V292.317H247.162ZM255.089 292.317V284.39H263.016V292.317H255.089ZM255.089 284.39V276.463H263.016V284.39H255.089ZM255.089 276.463V268.537H263.016V276.463H255.089ZM255.089 268.537V260.61H263.016V268.537H255.089ZM255.089 260.61V252.683H263.016V260.61H255.089ZM270.943 252.683V244.756H278.87V252.683H270.943ZM270.943 260.61V252.683H278.87V260.61H270.943ZM270.943 268.537V260.61H278.87V268.537H270.943ZM270.943 276.463V268.537H278.87V276.463H270.943ZM270.943 284.39V276.463H278.87V284.39H270.943ZM270.943 292.317V284.39H278.87V292.317H270.943ZM334.357 244.756V236.829H342.284V244.756H334.357ZM326.431 244.756V236.829H334.357V244.756H326.431ZM318.504 244.756V236.829H326.431V244.756H318.504ZM302.65 244.756V236.829H310.577V244.756H302.65ZM294.723 244.756V236.829H302.65V244.756H294.723ZM286.796 244.756V236.829H294.723V244.756H286.796ZM286.796 252.683V244.756H294.723V252.683H286.796ZM294.723 252.683V244.756H302.65V252.683H294.723ZM302.65 252.683V244.756H310.577V252.683H302.65ZM318.504 252.683V244.756H326.431V252.683H318.504ZM326.431 252.683V244.756H334.357V252.683H326.431ZM334.357 252.683V244.756H342.284V252.683H334.357ZM334.357 260.61V252.683H342.284V260.61H334.357ZM326.431 260.61V252.683H334.357V260.61H326.431ZM318.504 260.61V252.683H326.431V260.61H318.504ZM302.65 260.61V252.683H310.577V260.61H302.65ZM294.723 260.61V252.683H302.65V260.61H294.723ZM286.796 260.61V252.683H294.723V260.61H286.796ZM286.796 268.537V260.61H294.723V268.537H286.796ZM294.723 268.537V260.61H302.65V268.537H294.723ZM302.65 268.537V260.61H310.577V268.537H302.65ZM318.504 268.537V260.61H326.431V268.537H318.504ZM326.431 268.537V260.61H334.357V268.537H326.431ZM334.357 268.537V260.61H342.284V268.537H334.357ZM334.357 276.463V268.537H342.284V276.463H334.357ZM286.796 276.463V268.537H294.723V276.463H286.796ZM255.089 300.244V308.171H247.162V300.244H255.089ZM263.016 300.244V308.171H255.089V300.244H263.016ZM255.089 292.317V300.244H247.162V292.317H255.089ZM278.87 292.317V300.244H270.943V292.317H278.87ZM278.87 300.244V308.171H270.943V300.244H278.87ZM286.796 300.244V308.171H278.87V300.244H286.796ZM286.796 292.317V300.244H278.87V292.317H286.796ZM263.016 292.317V300.244H255.089V292.317H263.016ZM270.943 292.317V300.244H263.016V292.317H270.943ZM270.943 300.244V308.171H263.016V300.244H270.943ZM302.65 395.366V403.293H294.723V395.366H302.65ZM310.577 395.366V403.293H302.65V395.366H310.577ZM326.431 395.366V403.293H318.504V395.366H326.431ZM334.357 395.366V403.293H326.431V395.366H334.357ZM342.284 387.439V395.366H334.357V387.439H342.284ZM294.723 387.439V395.366H286.796V387.439H294.723ZM302.65 268.537V276.463H294.723V268.537H302.65ZM310.577 268.537V276.463H302.65V268.537H310.577ZM326.431 268.537V276.463H318.504V268.537H326.431ZM334.357 268.537V276.463H326.431V268.537H334.357ZM342.284 276.463V284.39H334.357V276.463H342.284ZM294.723 276.463V284.39H286.796V276.463H294.723ZM310.577 331.951V339.878H302.65V331.951H310.577ZM326.431 331.951V339.878H318.504V331.951H326.431ZM334.357 331.951V339.878H326.431V331.951H334.357ZM342.284 331.951V339.878H334.357V331.951H342.284ZM342.284 339.878V347.805H334.357V339.878H342.284ZM334.357 339.878V347.805H326.431V339.878H334.357ZM326.431 339.878V347.805H318.504V339.878H326.431ZM310.577 339.878V347.805H302.65V339.878H310.577ZM310.577 316.098V324.024H302.65V316.098H310.577ZM326.431 316.098V324.024H318.504V316.098H326.431ZM334.357 316.098V324.024H326.431V316.098H334.357ZM342.284 316.098V324.024H334.357V316.098H342.284ZM342.284 324.024V331.951H334.357V324.024H342.284ZM334.357 324.024V331.951H326.431V324.024H334.357ZM326.431 324.024V331.951H318.504V324.024H326.431ZM310.577 324.024V331.951H302.65V324.024H310.577ZM310.577 347.805V355.732H302.65V347.805H310.577ZM326.431 347.805V355.732H318.504V347.805H326.431ZM334.357 347.805V355.732H326.431V347.805H334.357ZM342.284 347.805V355.732H334.357V347.805H342.284ZM373.992 331.951V339.878H366.065V331.951H373.992ZM342.284 355.732V363.659H334.357V355.732H342.284ZM294.723 316.098V324.024H286.796V316.098H294.723ZM302.65 316.098V324.024H294.723V316.098H302.65ZM294.723 308.171V316.098H286.796V308.171H294.723ZM302.65 324.024V331.951H294.723V324.024H302.65ZM302.65 331.951V339.878H294.723V331.951H302.65ZM302.65 339.878V347.805H294.723V339.878H302.65ZM302.65 347.805V355.732H294.723V347.805H302.65ZM294.723 347.805V355.732H286.796V347.805H294.723ZM294.723 339.878V347.805H286.796V339.878H294.723ZM294.723 331.951V339.878H286.796V331.951H294.723ZM294.723 324.024V331.951H286.796V324.024H294.723ZM318.504 236.829V244.756H310.577V236.829H318.504ZM318.504 244.756V252.683H310.577V244.756H318.504ZM318.504 252.683V260.61H310.577V252.683H318.504ZM318.504 260.61V268.537H310.577V260.61H318.504ZM318.504 268.537V276.463H310.577V268.537H318.504ZM318.504 316.098V324.024H310.577V316.098H318.504ZM318.504 324.024V331.951H310.577V324.024H318.504ZM318.504 331.951V339.878H310.577V331.951H318.504ZM318.504 339.878V347.805H310.577V339.878H318.504ZM318.504 347.805V355.732H310.577V347.805H318.504ZM318.504 395.366V403.293H310.577V395.366H318.504ZM318.504 403.293V411.22H310.577V403.293H318.504ZM318.504 411.22V419.146H310.577V411.22H318.504ZM318.504 419.146V427.073H310.577V419.146H318.504ZM318.504 427.073V435H310.577V427.073H318.504ZM421.398 395.366V403.293H413.471V395.366H421.398ZM421.398 387.439V395.366H413.471V387.439H421.398ZM421.398 379.512V387.439H413.471V379.512H421.398ZM421.398 371.585V379.512H413.471V371.585H421.398ZM421.398 363.659V371.585H413.471V363.659H421.398ZM421.398 355.732V363.659H413.471V355.732H421.398ZM421.398 347.805V355.732H413.471V347.805H421.398ZM421.398 339.878V347.805H413.471V339.878H421.398ZM421.398 331.951V339.878H413.471V331.951H421.398ZM421.398 324.024V331.951H413.471V324.024H421.398ZM421.398 316.098V324.024H413.471V316.098H421.398ZM429.325 316.098V324.024H421.398V316.098H429.325ZM429.325 324.024V331.951H421.398V324.024H429.325ZM429.325 331.951V339.878H421.398V331.951H429.325ZM429.325 339.878V347.805H421.398V339.878H429.325ZM429.325 347.805V355.732H421.398V347.805H429.325ZM429.325 355.732V363.659H421.398V355.732H429.325ZM429.325 363.659V371.585H421.398V363.659H429.325ZM437.251 371.585V379.512H429.325V371.585H437.251ZM437.251 379.512V387.439H429.325V379.512H437.251ZM437.251 387.439V395.366H429.325V387.439H437.251ZM437.251 395.366V403.293H429.325V395.366H437.251ZM437.251 403.293V411.22H429.325V403.293H437.251ZM437.251 411.22V419.146H429.325V411.22H437.251ZM437.251 419.146V427.073H429.325V419.146H437.251ZM453.105 427.073V435H445.178V427.073H453.105ZM453.105 419.146V427.073H445.178V419.146H453.105ZM453.105 411.22V419.146H445.178V411.22H453.105ZM453.105 403.293V411.22H445.178V403.293H453.105ZM453.105 395.366V403.293H445.178V395.366H453.105ZM453.105 387.439V395.366H445.178V387.439H453.105ZM453.105 379.512V387.439H445.178V379.512H453.105ZM453.105 371.585V379.512H445.178V371.585H453.105ZM445.178 371.585V379.512H437.251V371.585H445.178ZM445.178 363.659V371.585H437.251V363.659H445.178ZM445.178 379.512V387.439H437.251V379.512H445.178ZM445.178 387.439V395.366H437.251V387.439H445.178ZM445.178 395.366V403.293H437.251V395.366H445.178ZM445.178 403.293V411.22H437.251V403.293H445.178ZM445.178 411.22V419.146H437.251V411.22H445.178ZM445.178 419.146V427.073H437.251V419.146H445.178ZM429.325 411.22V419.146H421.398V411.22H429.325ZM429.325 403.293V411.22H421.398V403.293H429.325ZM429.325 395.366V403.293H421.398V395.366H429.325ZM429.325 387.439V395.366H421.398V387.439H429.325ZM429.325 379.512V387.439H421.398V379.512H429.325ZM429.325 371.585V379.512H421.398V371.585H429.325ZM421.398 308.171V316.098H413.471V308.171H421.398ZM445.178 308.171V316.098H437.251V308.171H445.178ZM445.178 316.098V324.024H437.251V316.098H445.178ZM445.178 324.024V331.951H437.251V324.024H445.178ZM445.178 331.951V339.878H437.251V331.951H445.178ZM445.178 339.878V347.805H437.251V339.878H445.178ZM453.105 347.805V355.732H445.178V347.805H453.105ZM453.105 355.732V363.659H445.178V355.732H453.105ZM453.105 363.659V371.585H445.178V363.659H453.105ZM453.105 339.878V347.805H445.178V339.878H453.105ZM453.105 331.951V339.878H445.178V331.951H453.105ZM453.105 324.024V331.951H445.178V324.024H453.105ZM453.105 316.098V324.024H445.178V316.098H453.105ZM453.105 308.171V316.098H445.178V308.171H453.105ZM429.325 308.171V316.098H421.398V308.171H429.325ZM437.251 308.171V316.098H429.325V308.171H437.251ZM437.251 316.098V324.024H429.325V316.098H437.251ZM437.251 324.024V331.951H429.325V324.024H437.251ZM437.251 331.951V339.878H429.325V331.951H437.251ZM437.251 339.878V347.805H429.325V339.878H437.251ZM437.251 347.805V355.732H429.325V347.805H437.251ZM437.251 355.732V363.659H429.325V355.732H437.251ZM437.251 363.659V371.585H429.325V363.659H437.251ZM445.178 355.732V363.659H437.251V355.732H445.178ZM445.178 347.805V355.732H437.251V347.805H445.178ZM516.52 427.073V435H508.593V427.073H516.52ZM516.52 419.146V427.073H508.593V419.146H516.52ZM516.52 411.22V419.146H508.593V411.22H516.52ZM516.52 403.293V411.22H508.593V403.293H516.52ZM516.52 395.366V403.293H508.593V395.366H516.52ZM516.52 387.439V395.366H508.593V387.439H516.52ZM516.52 379.512V387.439H508.593V379.512H516.52ZM532.373 379.512V387.439H524.446V379.512H532.373ZM532.373 387.439V395.366H524.446V387.439H532.373ZM532.373 395.366V403.293H524.446V395.366H532.373ZM532.373 403.293V411.22H524.446V403.293H532.373ZM532.373 411.22V419.146H524.446V411.22H532.373ZM532.373 419.146V427.073H524.446V419.146H532.373ZM548.227 395.366V403.293H540.3V395.366H548.227ZM548.227 387.439V395.366H540.3V387.439H548.227ZM548.227 379.512V387.439H540.3V379.512H548.227ZM540.3 379.512V387.439H532.373V379.512H540.3ZM540.3 387.439V395.366H532.373V387.439H540.3ZM540.3 395.366V403.293H532.373V395.366H540.3ZM540.3 403.293V411.22H532.373V403.293H540.3ZM540.3 411.22V419.146H532.373V411.22H540.3ZM524.446 419.146V427.073H516.52V419.146H524.446ZM524.446 411.22V419.146H516.52V411.22H524.446ZM524.446 403.293V411.22H516.52V403.293H524.446ZM524.446 395.366V403.293H516.52V395.366H524.446ZM524.446 387.439V395.366H516.52V387.439H524.446ZM524.446 379.512V387.439H516.52V379.512H524.446ZM461.032 427.073V435H453.105V427.073H461.032ZM468.959 427.073V435H461.032V427.073H468.959ZM476.885 427.073V435H468.959V427.073H476.885ZM484.812 427.073V435H476.885V427.073H484.812ZM500.666 427.073V435H492.739V427.073H500.666ZM508.593 427.073V435H500.666V427.073H508.593ZM508.593 419.146V427.073H500.666V419.146H508.593ZM500.666 419.146V427.073H492.739V419.146H500.666ZM484.812 419.146V427.073H476.885V419.146H484.812ZM476.885 419.146V427.073H468.959V419.146H476.885ZM468.959 419.146V427.073H461.032V419.146H468.959ZM461.032 419.146V427.073H453.105V419.146H461.032ZM461.032 411.22V419.146H453.105V411.22H461.032ZM468.959 411.22V419.146H461.032V411.22H468.959ZM476.885 411.22V419.146H468.959V411.22H476.885ZM484.812 411.22V419.146H476.885V411.22H484.812ZM500.666 411.22V419.146H492.739V411.22H500.666ZM508.593 411.22V419.146H500.666V411.22H508.593ZM508.593 403.293V411.22H500.666V403.293H508.593ZM500.666 403.293V411.22H492.739V403.293H500.666ZM484.812 403.293V411.22H476.885V403.293H484.812ZM476.885 403.293V411.22H468.959V403.293H476.885ZM468.959 403.293V411.22H461.032V403.293H468.959ZM461.032 403.293V411.22H453.105V403.293H461.032ZM461.032 395.366V403.293H453.105V395.366H461.032ZM508.593 395.366V403.293H500.666V395.366H508.593ZM540.3 276.463V268.537H548.227V276.463H540.3ZM540.3 284.39V276.463H548.227V284.39H540.3ZM540.3 292.317V284.39H548.227V292.317H540.3ZM524.446 292.317V284.39H532.373V292.317H524.446ZM524.446 284.39V276.463H532.373V284.39H524.446ZM524.446 276.463V268.537H532.373V276.463H524.446ZM524.446 268.537V260.61H532.373V268.537H524.446ZM524.446 260.61V252.683H532.373V260.61H524.446ZM524.446 252.683V244.756H532.373V252.683H524.446ZM508.593 244.756V236.829H516.52V244.756H508.593ZM508.593 252.683V244.756H516.52V252.683H508.593ZM508.593 260.61V252.683H516.52V260.61H508.593ZM508.593 268.537V260.61H516.52V268.537H508.593ZM508.593 276.463V268.537H516.52V276.463H508.593ZM508.593 284.39V276.463H516.52V284.39H508.593ZM508.593 292.317V284.39H516.52V292.317H508.593ZM516.52 292.317V284.39H524.446V292.317H516.52ZM516.52 284.39V276.463H524.446V284.39H516.52ZM516.52 276.463V268.537H524.446V276.463H516.52ZM516.52 268.537V260.61H524.446V268.537H516.52ZM516.52 260.61V252.683H524.446V260.61H516.52ZM516.52 252.683V244.756H524.446V252.683H516.52ZM532.373 260.61V252.683H540.3V260.61H532.373ZM532.373 268.537V260.61H540.3V268.537H532.373ZM532.373 276.463V268.537H540.3V276.463H532.373ZM532.373 284.39V276.463H540.3V284.39H532.373ZM532.373 292.317V284.39H540.3V292.317H532.373ZM445.178 244.756V236.829H453.105V244.756H445.178ZM445.178 252.683V244.756H453.105V252.683H445.178ZM445.178 260.61V252.683H453.105V260.61H445.178ZM445.178 268.537V260.61H453.105V268.537H445.178ZM445.178 276.463V268.537H453.105V276.463H445.178ZM445.178 284.39V276.463H453.105V284.39H445.178ZM445.178 292.317V284.39H453.105V292.317H445.178ZM429.325 292.317V284.39H437.251V292.317H429.325ZM429.325 284.39V276.463H437.251V284.39H429.325ZM429.325 276.463V268.537H437.251V276.463H429.325ZM429.325 268.537V260.61H437.251V268.537H429.325ZM429.325 260.61V252.683H437.251V260.61H429.325ZM429.325 252.683V244.756H437.251V252.683H429.325ZM413.471 276.463V268.537H421.398V276.463H413.471ZM413.471 284.39V276.463H421.398V284.39H413.471ZM413.471 292.317V284.39H421.398V292.317H413.471ZM421.398 292.317V284.39H429.325V292.317H421.398ZM421.398 284.39V276.463H429.325V284.39H421.398ZM421.398 276.463V268.537H429.325V276.463H421.398ZM421.398 268.537V260.61H429.325V268.537H421.398ZM421.398 260.61V252.683H429.325V260.61H421.398ZM437.251 252.683V244.756H445.178V252.683H437.251ZM437.251 260.61V252.683H445.178V260.61H437.251ZM437.251 268.537V260.61H445.178V268.537H437.251ZM437.251 276.463V268.537H445.178V276.463H437.251ZM437.251 284.39V276.463H445.178V284.39H437.251ZM437.251 292.317V284.39H445.178V292.317H437.251ZM500.666 244.756V236.829H508.593V244.756H500.666ZM492.739 244.756V236.829H500.666V244.756H492.739ZM476.885 244.756V236.829H484.812V244.756H476.885ZM468.959 244.756V236.829H476.885V244.756H468.959ZM461.032 244.756V236.829H468.959V244.756H461.032ZM453.105 244.756V236.829H461.032V244.756H453.105ZM453.105 252.683V244.756H461.032V252.683H453.105ZM461.032 252.683V244.756H468.959V252.683H461.032ZM468.959 252.683V244.756H476.885V252.683H468.959ZM476.885 252.683V244.756H484.812V252.683H476.885ZM492.739 252.683V244.756H500.666V252.683H492.739ZM500.666 252.683V244.756H508.593V252.683H500.666ZM500.666 260.61V252.683H508.593V260.61H500.666ZM492.739 260.61V252.683H500.666V260.61H492.739ZM476.885 260.61V252.683H484.812V260.61H476.885ZM468.959 260.61V252.683H476.885V260.61H468.959ZM461.032 260.61V252.683H468.959V260.61H461.032ZM453.105 260.61V252.683H461.032V260.61H453.105ZM453.105 268.537V260.61H461.032V268.537H453.105ZM461.032 268.537V260.61H468.959V268.537H461.032ZM468.959 268.537V260.61H476.885V268.537H468.959ZM476.885 268.537V260.61H484.812V268.537H476.885ZM492.739 268.537V260.61H500.666V268.537H492.739ZM500.666 268.537V260.61H508.593V268.537H500.666ZM500.666 276.463V268.537H508.593V276.463H500.666ZM453.105 276.463V268.537H461.032V276.463H453.105ZM421.398 300.244V308.171H413.471V300.244H421.398ZM429.325 300.244V308.171H421.398V300.244H429.325ZM421.398 292.317V300.244H413.471V292.317H421.398ZM445.178 292.317V300.244H437.251V292.317H445.178ZM445.178 300.244V308.171H437.251V300.244H445.178ZM453.105 300.244V308.171H445.178V300.244H453.105ZM453.105 292.317V300.244H445.178V292.317H453.105ZM429.325 292.317V300.244H421.398V292.317H429.325ZM437.251 292.317V300.244H429.325V292.317H437.251ZM437.251 300.244V308.171H429.325V300.244H437.251ZM484.812 324.024V331.951H476.885V324.024H484.812ZM484.812 331.951V339.878H476.885V331.951H484.812ZM500.666 331.951V339.878H492.739V331.951H500.666ZM508.593 331.951V339.878H500.666V331.951H508.593ZM516.52 331.951V339.878H508.593V331.951H516.52ZM524.446 331.951V339.878H516.52V331.951H524.446ZM532.373 331.951V339.878H524.446V331.951H532.373ZM540.3 331.951V339.878H532.373V331.951H540.3ZM548.227 324.024V331.951H540.3V324.024H548.227ZM540.3 324.024V331.951H532.373V324.024H540.3ZM532.373 324.024V331.951H524.446V324.024H532.373ZM524.446 324.024V331.951H516.52V324.024H524.446ZM516.52 324.024V331.951H508.593V324.024H516.52ZM508.593 324.024V331.951H500.666V324.024H508.593ZM500.666 324.024V331.951H492.739V324.024H500.666ZM548.227 331.951V339.878H540.3V331.951H548.227ZM548.227 339.878V347.805H540.3V339.878H548.227ZM548.227 347.805V355.732H540.3V347.805H548.227ZM548.227 355.732V363.659H540.3V355.732H548.227ZM548.227 363.659V371.585H540.3V363.659H548.227ZM548.227 371.585V379.512H540.3V371.585H548.227ZM540.3 371.585V379.512H532.373V371.585H540.3ZM532.373 371.585V379.512H524.446V371.585H532.373ZM524.446 371.585V379.512H516.52V371.585H524.446ZM516.52 371.585V379.512H508.593V371.585H516.52ZM516.52 363.659V371.585H508.593V363.659H516.52ZM524.446 363.659V371.585H516.52V363.659H524.446ZM532.373 363.659V371.585H524.446V363.659H532.373ZM540.3 363.659V371.585H532.373V363.659H540.3ZM540.3 355.732V363.659H532.373V355.732H540.3ZM532.373 355.732V363.659H524.446V355.732H532.373ZM524.446 355.732V363.659H516.52V355.732H524.446ZM516.52 355.732V363.659H508.593V355.732H516.52ZM484.812 339.878V347.805H476.885V339.878H484.812ZM484.812 347.805V355.732H476.885V347.805H484.812ZM500.666 347.805V355.732H492.739V347.805H500.666ZM508.593 347.805V355.732H500.666V347.805H508.593ZM516.52 347.805V355.732H508.593V347.805H516.52ZM524.446 347.805V355.732H516.52V347.805H524.446ZM532.373 347.805V355.732H524.446V347.805H532.373ZM540.3 347.805V355.732H532.373V347.805H540.3ZM540.3 339.878V347.805H532.373V339.878H540.3ZM532.373 339.878V347.805H524.446V339.878H532.373ZM524.446 339.878V347.805H516.52V339.878H524.446ZM516.52 339.878V347.805H508.593V339.878H516.52ZM508.593 339.878V347.805H500.666V339.878H508.593ZM500.666 339.878V347.805H492.739V339.878H500.666ZM468.959 395.366V403.293H461.032V395.366H468.959ZM476.885 395.366V403.293H468.959V395.366H476.885ZM484.812 395.366V403.293H476.885V395.366H484.812ZM500.666 395.366V403.293H492.739V395.366H500.666ZM508.593 387.439V395.366H500.666V387.439H508.593ZM461.032 387.439V395.366H453.105V387.439H461.032ZM468.959 268.537V276.463H461.032V268.537H468.959ZM476.885 268.537V276.463H468.959V268.537H476.885ZM484.812 268.537V276.463H476.885V268.537H484.812ZM500.666 268.537V276.463H492.739V268.537H500.666ZM461.032 276.463V284.39H453.105V276.463H461.032ZM508.593 276.463V284.39H500.666V276.463H508.593ZM516.52 292.317V300.244H508.593V292.317H516.52ZM524.446 292.317V300.244H516.52V292.317H524.446ZM532.373 292.317V300.244H524.446V292.317H532.373ZM540.3 292.317V300.244H532.373V292.317H540.3ZM548.227 292.317V300.244H540.3V292.317H548.227ZM484.812 355.732V363.659H476.885V355.732H484.812ZM500.666 355.732V363.659H492.739V355.732H500.666ZM508.593 355.732V363.659H500.666V355.732H508.593ZM492.739 236.829V244.756H484.812V236.829H492.739ZM492.739 244.756V252.683H484.812V244.756H492.739ZM492.739 252.683V260.61H484.812V252.683H492.739ZM492.739 260.61V268.537H484.812V260.61H492.739ZM492.739 268.537V276.463H484.812V268.537H492.739ZM492.739 324.024V331.951H484.812V324.024H492.739ZM492.739 331.951V339.878H484.812V331.951H492.739ZM492.739 339.878V347.805H484.812V339.878H492.739ZM492.739 347.805V355.732H484.812V347.805H492.739ZM492.739 355.732V363.659H484.812V355.732H492.739ZM492.739 395.366V403.293H484.812V395.366H492.739ZM492.739 403.293V411.22H484.812V403.293H492.739ZM492.739 411.22V419.146H484.812V411.22H492.739ZM492.739 419.146V427.073H484.812V419.146H492.739ZM492.739 427.073V435H484.812V427.073H492.739Z" fill="#2F2F2F"/>
</svg>
