<svg width="639" height="713" viewBox="0 0 639 713" fill="none" xmlns="http://www.w3.org/2000/svg">
<rect width="639" height="713" rx="45" fill="#EABA8C"/>
<path d="M125.122 362.463V369.171H118.415V362.463H125.122ZM125.122 355.756V362.463H118.415V355.756H125.122ZM125.122 349.049V355.756H118.415V349.049H125.122ZM125.122 342.341V349.049H118.415V342.341H125.122ZM125.122 335.634V342.341H118.415V335.634H125.122ZM125.122 328.927V335.634H118.415V328.927H125.122ZM125.122 322.22V328.927H118.415V322.22H125.122ZM125.122 315.512V322.22H118.415V315.512H125.122ZM125.122 308.805V315.512H118.415V308.805H125.122ZM125.122 302.098V308.805H118.415V302.098H125.122ZM125.122 295.39V302.098H118.415V295.39H125.122ZM131.829 295.39V302.098H125.122V295.39H131.829ZM131.829 302.098V308.805H125.122V302.098H131.829ZM131.829 308.805V315.512H125.122V308.805H131.829ZM131.829 315.512V322.22H125.122V315.512H131.829ZM131.829 322.22V328.927H125.122V322.22H131.829ZM131.829 328.927V335.634H125.122V328.927H131.829ZM131.829 335.634V342.341H125.122V335.634H131.829ZM138.537 342.341V349.049H131.829V342.341H138.537ZM138.537 349.049V355.756H131.829V349.049H138.537ZM138.537 355.756V362.463H131.829V355.756H138.537ZM138.537 362.463V369.171H131.829V362.463H138.537ZM138.537 369.171V375.878H131.829V369.171H138.537ZM138.537 375.878V382.585H131.829V375.878H138.537ZM138.537 382.585V389.293H131.829V382.585H138.537ZM151.951 389.293V396H145.244V389.293H151.951ZM151.951 382.585V389.293H145.244V382.585H151.951ZM151.951 375.878V382.585H145.244V375.878H151.951ZM151.951 369.171V375.878H145.244V369.171H151.951ZM151.951 362.463V369.171H145.244V362.463H151.951ZM151.951 355.756V362.463H145.244V355.756H151.951ZM151.951 349.049V355.756H145.244V349.049H151.951ZM151.951 342.341V349.049H145.244V342.341H151.951ZM145.244 342.341V349.049H138.537V342.341H145.244ZM145.244 335.634V342.341H138.537V335.634H145.244ZM145.244 349.049V355.756H138.537V349.049H145.244ZM145.244 355.756V362.463H138.537V355.756H145.244ZM145.244 362.463V369.171H138.537V362.463H145.244ZM145.244 369.171V375.878H138.537V369.171H145.244ZM145.244 375.878V382.585H138.537V375.878H145.244ZM145.244 382.585V389.293H138.537V382.585H145.244ZM131.829 375.878V382.585H125.122V375.878H131.829ZM131.829 369.171V375.878H125.122V369.171H131.829ZM131.829 362.463V369.171H125.122V362.463H131.829ZM131.829 355.756V362.463H125.122V355.756H131.829ZM131.829 349.049V355.756H125.122V349.049H131.829ZM131.829 342.341V349.049H125.122V342.341H131.829ZM125.122 288.683V295.39H118.415V288.683H125.122ZM145.244 288.683V295.39H138.537V288.683H145.244ZM145.244 295.39V302.098H138.537V295.39H145.244ZM145.244 302.098V308.805H138.537V302.098H145.244ZM145.244 308.805V315.512H138.537V308.805H145.244ZM145.244 315.512V322.22H138.537V315.512H145.244ZM151.951 322.22V328.927H145.244V322.22H151.951ZM151.951 328.927V335.634H145.244V328.927H151.951ZM151.951 335.634V342.341H145.244V335.634H151.951ZM151.951 315.512V322.22H145.244V315.512H151.951ZM151.951 308.805V315.512H145.244V308.805H151.951ZM151.951 302.098V308.805H145.244V302.098H151.951ZM151.951 295.39V302.098H145.244V295.39H151.951ZM151.951 288.683V295.39H145.244V288.683H151.951ZM131.829 288.683V295.39H125.122V288.683H131.829ZM138.537 288.683V295.39H131.829V288.683H138.537ZM138.537 295.39V302.098H131.829V295.39H138.537ZM138.537 302.098V308.805H131.829V302.098H138.537ZM138.537 308.805V315.512H131.829V308.805H138.537ZM138.537 315.512V322.22H131.829V315.512H138.537ZM138.537 322.22V328.927H131.829V322.22H138.537ZM138.537 328.927V335.634H131.829V328.927H138.537ZM138.537 335.634V342.341H131.829V335.634H138.537ZM145.244 328.927V335.634H138.537V328.927H145.244ZM145.244 322.22V328.927H138.537V322.22H145.244ZM205.61 389.293V396H198.902V389.293H205.61ZM205.61 382.585V389.293H198.902V382.585H205.61ZM205.61 375.878V382.585H198.902V375.878H205.61ZM205.61 369.171V375.878H198.902V369.171H205.61ZM205.61 362.463V369.171H198.902V362.463H205.61ZM205.61 355.756V362.463H198.902V355.756H205.61ZM205.61 349.049V355.756H198.902V349.049H205.61ZM219.024 349.049V355.756H212.317V349.049H219.024ZM219.024 355.756V362.463H212.317V355.756H219.024ZM219.024 362.463V369.171H212.317V362.463H219.024ZM219.024 369.171V375.878H212.317V369.171H219.024ZM219.024 375.878V382.585H212.317V375.878H219.024ZM219.024 382.585V389.293H212.317V382.585H219.024ZM232.439 362.463V369.171H225.732V362.463H232.439ZM232.439 355.756V362.463H225.732V355.756H232.439ZM232.439 349.049V355.756H225.732V349.049H232.439ZM225.732 349.049V355.756H219.024V349.049H225.732ZM225.732 355.756V362.463H219.024V355.756H225.732ZM225.732 362.463V369.171H219.024V362.463H225.732ZM225.732 369.171V375.878H219.024V369.171H225.732ZM225.732 375.878V382.585H219.024V375.878H225.732ZM212.317 382.585V389.293H205.61V382.585H212.317ZM212.317 375.878V382.585H205.61V375.878H212.317ZM212.317 369.171V375.878H205.61V369.171H212.317ZM212.317 362.463V369.171H205.61V362.463H212.317ZM212.317 355.756V362.463H205.61V355.756H212.317ZM212.317 349.049V355.756H205.61V349.049H212.317ZM158.659 389.293V396H151.951V389.293H158.659ZM165.366 389.293V396H158.659V389.293H165.366ZM172.073 389.293V396H165.366V389.293H172.073ZM178.78 389.293V396H172.073V389.293H178.78ZM185.488 389.293V396H178.78V389.293H185.488ZM198.902 389.293V396H192.195V389.293H198.902ZM198.902 382.585V389.293H192.195V382.585H198.902ZM185.488 382.585V389.293H178.78V382.585H185.488ZM178.78 382.585V389.293H172.073V382.585H178.78ZM172.073 382.585V389.293H165.366V382.585H172.073ZM165.366 382.585V389.293H158.659V382.585H165.366ZM158.659 382.585V389.293H151.951V382.585H158.659ZM158.659 375.878V382.585H151.951V375.878H158.659ZM165.366 375.878V382.585H158.659V375.878H165.366ZM172.073 375.878V382.585H165.366V375.878H172.073ZM178.78 375.878V382.585H172.073V375.878H178.78ZM185.488 375.878V382.585H178.78V375.878H185.488ZM198.902 375.878V382.585H192.195V375.878H198.902ZM198.902 369.171V375.878H192.195V369.171H198.902ZM185.488 369.171V375.878H178.78V369.171H185.488ZM178.78 369.171V375.878H172.073V369.171H178.78ZM172.073 369.171V375.878H165.366V369.171H172.073ZM165.366 369.171V375.878H158.659V369.171H165.366ZM158.659 369.171V375.878H151.951V369.171H158.659ZM158.659 362.463V369.171H151.951V362.463H158.659ZM198.902 362.463V369.171H192.195V362.463H198.902ZM225.732 261.854V255.146H232.439V261.854H225.732ZM225.732 268.561V261.854H232.439V268.561H225.732ZM225.732 275.268V268.561H232.439V275.268H225.732ZM212.317 275.268V268.561H219.024V275.268H212.317ZM212.317 268.561V261.854H219.024V268.561H212.317ZM212.317 261.854V255.146H219.024V261.854H212.317ZM212.317 255.146V248.439H219.024V255.146H212.317ZM212.317 248.439V241.732H219.024V248.439H212.317ZM212.317 241.732V235.024H219.024V241.732H212.317ZM198.902 235.024V228.317H205.61V235.024H198.902ZM198.902 241.732V235.024H205.61V241.732H198.902ZM198.902 248.439V241.732H205.61V248.439H198.902ZM198.902 255.146V248.439H205.61V255.146H198.902ZM198.902 261.854V255.146H205.61V261.854H198.902ZM198.902 268.561V261.854H205.61V268.561H198.902ZM198.902 275.268V268.561H205.61V275.268H198.902ZM205.61 275.268V268.561H212.317V275.268H205.61ZM205.61 268.561V261.854H212.317V268.561H205.61ZM205.61 261.854V255.146H212.317V261.854H205.61ZM205.61 255.146V248.439H212.317V255.146H205.61ZM205.61 248.439V241.732H212.317V248.439H205.61ZM205.61 241.732V235.024H212.317V241.732H205.61ZM219.024 248.439V241.732H225.732V248.439H219.024ZM219.024 255.146V248.439H225.732V255.146H219.024ZM219.024 261.854V255.146H225.732V261.854H219.024ZM219.024 268.561V261.854H225.732V268.561H219.024ZM219.024 275.268V268.561H225.732V275.268H219.024ZM145.244 235.024V228.317H151.951V235.024H145.244ZM145.244 241.732V235.024H151.951V241.732H145.244ZM145.244 248.439V241.732H151.951V248.439H145.244ZM145.244 255.146V248.439H151.951V255.146H145.244ZM145.244 261.854V255.146H151.951V261.854H145.244ZM145.244 268.561V261.854H151.951V268.561H145.244ZM145.244 275.268V268.561H151.951V275.268H145.244ZM131.829 275.268V268.561H138.537V275.268H131.829ZM131.829 268.561V261.854H138.537V268.561H131.829ZM131.829 261.854V255.146H138.537V261.854H131.829ZM131.829 255.146V248.439H138.537V255.146H131.829ZM131.829 248.439V241.732H138.537V248.439H131.829ZM131.829 241.732V235.024H138.537V241.732H131.829ZM118.415 261.854V255.146H125.122V261.854H118.415ZM118.415 268.561V261.854H125.122V268.561H118.415ZM118.415 275.268V268.561H125.122V275.268H118.415ZM125.122 275.268V268.561H131.829V275.268H125.122ZM125.122 268.561V261.854H131.829V268.561H125.122ZM125.122 261.854V255.146H131.829V261.854H125.122ZM125.122 255.146V248.439H131.829V255.146H125.122ZM125.122 248.439V241.732H131.829V248.439H125.122ZM138.537 241.732V235.024H145.244V241.732H138.537ZM138.537 248.439V241.732H145.244V248.439H138.537ZM138.537 255.146V248.439H145.244V255.146H138.537ZM138.537 261.854V255.146H145.244V261.854H138.537ZM138.537 268.561V261.854H145.244V268.561H138.537ZM138.537 275.268V268.561H145.244V275.268H138.537ZM192.195 235.024V228.317H198.902V235.024H192.195ZM178.78 235.024V228.317H185.488V235.024H178.78ZM172.073 235.024V228.317H178.78V235.024H172.073ZM165.366 235.024V228.317H172.073V235.024H165.366ZM158.659 235.024V228.317H165.366V235.024H158.659ZM151.951 235.024V228.317H158.659V235.024H151.951ZM151.951 241.732V235.024H158.659V241.732H151.951ZM158.659 241.732V235.024H165.366V241.732H158.659ZM165.366 241.732V235.024H172.073V241.732H165.366ZM172.073 241.732V235.024H178.78V241.732H172.073ZM178.78 241.732V235.024H185.488V241.732H178.78ZM192.195 241.732V235.024H198.902V241.732H192.195ZM192.195 248.439V241.732H198.902V248.439H192.195ZM178.78 248.439V241.732H185.488V248.439H178.78ZM172.073 248.439V241.732H178.78V248.439H172.073ZM165.366 248.439V241.732H172.073V248.439H165.366ZM158.659 248.439V241.732H165.366V248.439H158.659ZM151.951 248.439V241.732H158.659V248.439H151.951ZM151.951 255.146V248.439H158.659V255.146H151.951ZM158.659 255.146V248.439H165.366V255.146H158.659ZM165.366 255.146V248.439H172.073V255.146H165.366ZM172.073 255.146V248.439H178.78V255.146H172.073ZM178.78 255.146V248.439H185.488V255.146H178.78ZM192.195 255.146V248.439H198.902V255.146H192.195ZM192.195 261.854V255.146H198.902V261.854H192.195ZM151.951 261.854V255.146H158.659V261.854H151.951ZM125.122 281.976V288.683H118.415V281.976H125.122ZM131.829 281.976V288.683H125.122V281.976H131.829ZM125.122 275.268V281.976H118.415V275.268H125.122ZM145.244 275.268V281.976H138.537V275.268H145.244ZM145.244 281.976V288.683H138.537V281.976H145.244ZM151.951 281.976V288.683H145.244V281.976H151.951ZM151.951 275.268V281.976H145.244V275.268H151.951ZM131.829 275.268V281.976H125.122V275.268H131.829ZM138.537 275.268V281.976H131.829V275.268H138.537ZM138.537 281.976V288.683H131.829V281.976H138.537ZM165.366 362.463V369.171H158.659V362.463H165.366ZM172.073 362.463V369.171H165.366V362.463H172.073ZM178.78 362.463V369.171H172.073V362.463H178.78ZM185.488 362.463V369.171H178.78V362.463H185.488ZM198.902 355.756V362.463H192.195V355.756H198.902ZM158.659 355.756V362.463H151.951V355.756H158.659ZM205.61 342.341V349.049H198.902V342.341H205.61ZM212.317 342.341V349.049H205.61V342.341H212.317ZM219.024 342.341V349.049H212.317V342.341H219.024ZM225.732 342.341V349.049H219.024V342.341H225.732ZM232.439 342.341V349.049H225.732V342.341H232.439ZM158.659 261.854V268.561H151.951V261.854H158.659ZM165.366 255.146V261.854H158.659V255.146H165.366ZM172.073 255.146V261.854H165.366V255.146H172.073ZM178.78 255.146V261.854H172.073V255.146H178.78ZM185.488 255.146V261.854H178.78V255.146H185.488ZM198.902 261.854V268.561H192.195V261.854H198.902ZM205.61 275.268V281.976H198.902V275.268H205.61ZM212.317 275.268V281.976H205.61V275.268H212.317ZM219.024 275.268V281.976H212.317V275.268H219.024ZM225.732 275.268V281.976H219.024V275.268H225.732ZM232.439 275.268V281.976H225.732V275.268H232.439ZM192.195 228.317V235.024H185.488V228.317H192.195ZM192.195 235.024V241.732H185.488V235.024H192.195ZM192.195 241.732V248.439H185.488V241.732H192.195ZM192.195 248.439V255.146H185.488V248.439H192.195ZM192.195 255.146V261.854H185.488V255.146H192.195ZM192.195 362.463V369.171H185.488V362.463H192.195ZM192.195 369.171V375.878H185.488V369.171H192.195ZM192.195 375.878V382.585H185.488V375.878H192.195ZM192.195 382.585V389.293H185.488V382.585H192.195ZM192.195 389.293V396H185.488V389.293H192.195ZM265.845 362.463V369.171H259.137V362.463H265.845ZM265.845 355.756V362.463H259.137V355.756H265.845ZM265.845 349.049V355.756H259.137V349.049H265.845ZM265.845 342.341V349.049H259.137V342.341H265.845ZM265.845 295.39V302.098H259.137V295.39H265.845ZM272.552 295.39V302.098H265.845V295.39H272.552ZM272.552 302.098V308.805H265.845V302.098H272.552ZM272.552 308.805V315.512H265.845V308.805H272.552ZM279.259 342.341V349.049H272.552V342.341H279.259ZM279.259 349.049V355.756H272.552V349.049H279.259ZM279.259 355.756V362.463H272.552V355.756H279.259ZM279.259 362.463V369.171H272.552V362.463H279.259ZM279.259 369.171V375.878H272.552V369.171H279.259ZM279.259 375.878V382.585H272.552V375.878H279.259ZM279.259 382.585V389.293H272.552V382.585H279.259ZM292.674 389.293V396H285.967V389.293H292.674ZM292.674 382.585V389.293H285.967V382.585H292.674ZM292.674 375.878V382.585H285.967V375.878H292.674ZM292.674 369.171V375.878H285.967V369.171H292.674ZM292.674 362.463V369.171H285.967V362.463H292.674ZM292.674 355.756V362.463H285.967V355.756H292.674ZM292.674 349.049V355.756H285.967V349.049H292.674ZM292.674 342.341V349.049H285.967V342.341H292.674ZM285.967 342.341V349.049H279.259V342.341H285.967ZM285.967 349.049V355.756H279.259V349.049H285.967ZM285.967 355.756V362.463H279.259V355.756H285.967ZM285.967 362.463V369.171H279.259V362.463H285.967ZM285.967 369.171V375.878H279.259V369.171H285.967ZM285.967 375.878V382.585H279.259V375.878H285.967ZM285.967 382.585V389.293H279.259V382.585H285.967ZM272.552 375.878V382.585H265.845V375.878H272.552ZM272.552 369.171V375.878H265.845V369.171H272.552ZM272.552 362.463V369.171H265.845V362.463H272.552ZM272.552 355.756V362.463H265.845V355.756H272.552ZM272.552 349.049V355.756H265.845V349.049H272.552ZM272.552 342.341V349.049H265.845V342.341H272.552ZM265.845 288.683V295.39H259.137V288.683H265.845ZM285.967 288.683V295.39H279.259V288.683H285.967ZM285.967 295.39V302.098H279.259V295.39H285.967ZM285.967 302.098V308.805H279.259V302.098H285.967ZM285.967 308.805V315.512H279.259V308.805H285.967ZM285.967 315.512V322.22H279.259V315.512H285.967ZM292.674 322.22V328.927H285.967V322.22H292.674ZM292.674 315.512V322.22H285.967V315.512H292.674ZM292.674 308.805V315.512H285.967V308.805H292.674ZM292.674 302.098V308.805H285.967V302.098H292.674ZM292.674 295.39V302.098H285.967V295.39H292.674ZM292.674 288.683V295.39H285.967V288.683H292.674ZM272.552 288.683V295.39H265.845V288.683H272.552ZM279.259 288.683V295.39H272.552V288.683H279.259ZM279.259 295.39V302.098H272.552V295.39H279.259ZM279.259 302.098V308.805H272.552V302.098H279.259ZM279.259 308.805V315.512H272.552V308.805H279.259ZM279.259 315.512V322.22H272.552V315.512H279.259ZM346.332 389.293V396H339.625V389.293H346.332ZM346.332 382.585V389.293H339.625V382.585H346.332ZM346.332 375.878V382.585H339.625V375.878H346.332ZM346.332 369.171V375.878H339.625V369.171H346.332ZM346.332 362.463V369.171H339.625V362.463H346.332ZM346.332 355.756V362.463H339.625V355.756H346.332ZM346.332 349.049V355.756H339.625V349.049H346.332ZM346.332 342.341V349.049H339.625V342.341H346.332ZM346.332 335.634V342.341H339.625V335.634H346.332ZM346.332 328.927V335.634H339.625V328.927H346.332ZM346.332 322.22V328.927H339.625V322.22H346.332ZM346.332 315.512V322.22H339.625V315.512H346.332ZM346.332 308.805V315.512H339.625V308.805H346.332ZM346.332 302.098V308.805H339.625V302.098H346.332ZM346.332 295.39V302.098H339.625V295.39H346.332ZM353.04 302.098V308.805H346.332V302.098H353.04ZM353.04 308.805V315.512H346.332V308.805H353.04ZM353.04 315.512V322.22H346.332V315.512H353.04ZM353.04 322.22V328.927H346.332V322.22H353.04ZM353.04 328.927V335.634H346.332V328.927H353.04ZM353.04 335.634V342.341H346.332V335.634H353.04ZM359.747 342.341V349.049H353.04V342.341H359.747ZM359.747 349.049V355.756H353.04V349.049H359.747ZM359.747 355.756V362.463H353.04V355.756H359.747ZM359.747 362.463V369.171H353.04V362.463H359.747ZM359.747 369.171V375.878H353.04V369.171H359.747ZM359.747 375.878V382.585H353.04V375.878H359.747ZM359.747 382.585V389.293H353.04V382.585H359.747ZM373.162 362.463V369.171H366.454V362.463H373.162ZM373.162 355.756V362.463H366.454V355.756H373.162ZM373.162 349.049V355.756H366.454V349.049H373.162ZM373.162 342.341V349.049H366.454V342.341H373.162ZM366.454 342.341V349.049H359.747V342.341H366.454ZM366.454 335.634V342.341H359.747V335.634H366.454ZM366.454 349.049V355.756H359.747V349.049H366.454ZM366.454 355.756V362.463H359.747V355.756H366.454ZM366.454 362.463V369.171H359.747V362.463H366.454ZM366.454 369.171V375.878H359.747V369.171H366.454ZM366.454 375.878V382.585H359.747V375.878H366.454ZM353.04 382.585V389.293H346.332V382.585H353.04ZM353.04 375.878V382.585H346.332V375.878H353.04ZM353.04 369.171V375.878H346.332V369.171H353.04ZM353.04 362.463V369.171H346.332V362.463H353.04ZM353.04 355.756V362.463H346.332V355.756H353.04ZM353.04 349.049V355.756H346.332V349.049H353.04ZM353.04 342.341V349.049H346.332V342.341H353.04ZM366.454 315.512V322.22H359.747V315.512H366.454ZM373.162 322.22V328.927H366.454V322.22H373.162ZM373.162 328.927V335.634H366.454V328.927H373.162ZM373.162 335.634V342.341H366.454V335.634H373.162ZM359.747 302.098V308.805H353.04V302.098H359.747ZM359.747 308.805V315.512H353.04V308.805H359.747ZM359.747 315.512V322.22H353.04V315.512H359.747ZM359.747 322.22V328.927H353.04V322.22H359.747ZM359.747 328.927V335.634H353.04V328.927H359.747ZM359.747 335.634V342.341H353.04V335.634H359.747ZM366.454 328.927V335.634H359.747V328.927H366.454ZM366.454 322.22V328.927H359.747V322.22H366.454ZM299.381 389.293V396H292.674V389.293H299.381ZM306.089 389.293V396H299.381V389.293H306.089ZM312.796 389.293V396H306.089V389.293H312.796ZM326.21 389.293V396H319.503V389.293H326.21ZM332.918 389.293V396H326.21V389.293H332.918ZM339.625 389.293V396H332.918V389.293H339.625ZM339.625 382.585V389.293H332.918V382.585H339.625ZM332.918 382.585V389.293H326.21V382.585H332.918ZM326.21 382.585V389.293H319.503V382.585H326.21ZM312.796 382.585V389.293H306.089V382.585H312.796ZM306.089 382.585V389.293H299.381V382.585H306.089ZM299.381 382.585V389.293H292.674V382.585H299.381ZM299.381 375.878V382.585H292.674V375.878H299.381ZM306.089 375.878V382.585H299.381V375.878H306.089ZM312.796 375.878V382.585H306.089V375.878H312.796ZM326.21 375.878V382.585H319.503V375.878H326.21ZM332.918 375.878V382.585H326.21V375.878H332.918ZM339.625 375.878V382.585H332.918V375.878H339.625ZM339.625 369.171V375.878H332.918V369.171H339.625ZM332.918 369.171V375.878H326.21V369.171H332.918ZM326.21 369.171V375.878H319.503V369.171H326.21ZM312.796 369.171V375.878H306.089V369.171H312.796ZM306.089 369.171V375.878H299.381V369.171H306.089ZM299.381 369.171V375.878H292.674V369.171H299.381ZM299.381 362.463V369.171H292.674V362.463H299.381ZM339.625 362.463V369.171H332.918V362.463H339.625ZM366.454 261.854V255.146H373.162V261.854H366.454ZM366.454 268.561V261.854H373.162V268.561H366.454ZM366.454 275.268V268.561H373.162V275.268H366.454ZM353.04 275.268V268.561H359.747V275.268H353.04ZM353.04 268.561V261.854H359.747V268.561H353.04ZM353.04 261.854V255.146H359.747V261.854H353.04ZM353.04 255.146V248.439H359.747V255.146H353.04ZM353.04 248.439V241.732H359.747V248.439H353.04ZM353.04 241.732V235.024H359.747V241.732H353.04ZM339.625 235.024V228.317H346.332V235.024H339.625ZM339.625 241.732V235.024H346.332V241.732H339.625ZM339.625 248.439V241.732H346.332V248.439H339.625ZM339.625 255.146V248.439H346.332V255.146H339.625ZM339.625 261.854V255.146H346.332V261.854H339.625ZM339.625 268.561V261.854H346.332V268.561H339.625ZM339.625 275.268V268.561H346.332V275.268H339.625ZM346.332 275.268V268.561H353.04V275.268H346.332ZM346.332 268.561V261.854H353.04V268.561H346.332ZM346.332 261.854V255.146H353.04V261.854H346.332ZM346.332 255.146V248.439H353.04V255.146H346.332ZM346.332 248.439V241.732H353.04V248.439H346.332ZM346.332 241.732V235.024H353.04V241.732H346.332ZM359.747 248.439V241.732H366.454V248.439H359.747ZM359.747 255.146V248.439H366.454V255.146H359.747ZM359.747 261.854V255.146H366.454V261.854H359.747ZM359.747 268.561V261.854H366.454V268.561H359.747ZM359.747 275.268V268.561H366.454V275.268H359.747ZM285.967 235.024V228.317H292.674V235.024H285.967ZM285.967 241.732V235.024H292.674V241.732H285.967ZM285.967 248.439V241.732H292.674V248.439H285.967ZM285.967 255.146V248.439H292.674V255.146H285.967ZM285.967 261.854V255.146H292.674V261.854H285.967ZM285.967 268.561V261.854H292.674V268.561H285.967ZM285.967 275.268V268.561H292.674V275.268H285.967ZM272.552 275.268V268.561H279.259V275.268H272.552ZM272.552 268.561V261.854H279.259V268.561H272.552ZM272.552 261.854V255.146H279.259V261.854H272.552ZM272.552 255.146V248.439H279.259V255.146H272.552ZM272.552 248.439V241.732H279.259V248.439H272.552ZM272.552 241.732V235.024H279.259V241.732H272.552ZM259.137 261.854V255.146H265.845V261.854H259.137ZM259.137 268.561V261.854H265.845V268.561H259.137ZM259.137 275.268V268.561H265.845V275.268H259.137ZM265.845 275.268V268.561H272.552V275.268H265.845ZM265.845 268.561V261.854H272.552V268.561H265.845ZM265.845 261.854V255.146H272.552V261.854H265.845ZM265.845 255.146V248.439H272.552V255.146H265.845ZM265.845 248.439V241.732H272.552V248.439H265.845ZM279.259 241.732V235.024H285.967V241.732H279.259ZM279.259 248.439V241.732H285.967V248.439H279.259ZM279.259 255.146V248.439H285.967V255.146H279.259ZM279.259 261.854V255.146H285.967V261.854H279.259ZM279.259 268.561V261.854H285.967V268.561H279.259ZM279.259 275.268V268.561H285.967V275.268H279.259ZM332.918 235.024V228.317H339.625V235.024H332.918ZM326.21 235.024V228.317H332.918V235.024H326.21ZM319.503 235.024V228.317H326.21V235.024H319.503ZM306.089 235.024V228.317H312.796V235.024H306.089ZM299.381 235.024V228.317H306.089V235.024H299.381ZM292.674 235.024V228.317H299.381V235.024H292.674ZM292.674 241.732V235.024H299.381V241.732H292.674ZM299.381 241.732V235.024H306.089V241.732H299.381ZM306.089 241.732V235.024H312.796V241.732H306.089ZM319.503 241.732V235.024H326.21V241.732H319.503ZM326.21 241.732V235.024H332.918V241.732H326.21ZM332.918 241.732V235.024H339.625V241.732H332.918ZM332.918 248.439V241.732H339.625V248.439H332.918ZM326.21 248.439V241.732H332.918V248.439H326.21ZM319.503 248.439V241.732H326.21V248.439H319.503ZM306.089 248.439V241.732H312.796V248.439H306.089ZM299.381 248.439V241.732H306.089V248.439H299.381ZM292.674 248.439V241.732H299.381V248.439H292.674ZM292.674 255.146V248.439H299.381V255.146H292.674ZM299.381 255.146V248.439H306.089V255.146H299.381ZM306.089 255.146V248.439H312.796V255.146H306.089ZM319.503 255.146V248.439H326.21V255.146H319.503ZM326.21 255.146V248.439H332.918V255.146H326.21ZM332.918 255.146V248.439H339.625V255.146H332.918ZM332.918 261.854V255.146H339.625V261.854H332.918ZM292.674 261.854V255.146H299.381V261.854H292.674ZM265.845 281.976V288.683H259.137V281.976H265.845ZM272.552 281.976V288.683H265.845V281.976H272.552ZM265.845 275.268V281.976H259.137V275.268H265.845ZM285.967 275.268V281.976H279.259V275.268H285.967ZM285.967 281.976V288.683H279.259V281.976H285.967ZM292.674 281.976V288.683H285.967V281.976H292.674ZM292.674 275.268V281.976H285.967V275.268H292.674ZM272.552 275.268V281.976H265.845V275.268H272.552ZM279.259 275.268V281.976H272.552V275.268H279.259ZM279.259 281.976V288.683H272.552V281.976H279.259ZM306.089 362.463V369.171H299.381V362.463H306.089ZM312.796 362.463V369.171H306.089V362.463H312.796ZM326.21 362.463V369.171H319.503V362.463H326.21ZM332.918 362.463V369.171H326.21V362.463H332.918ZM339.625 355.756V362.463H332.918V355.756H339.625ZM299.381 355.756V362.463H292.674V355.756H299.381ZM306.089 255.146V261.854H299.381V255.146H306.089ZM312.796 255.146V261.854H306.089V255.146H312.796ZM326.21 255.146V261.854H319.503V255.146H326.21ZM332.918 255.146V261.854H326.21V255.146H332.918ZM339.625 261.854V268.561H332.918V261.854H339.625ZM299.381 261.854V268.561H292.674V261.854H299.381ZM312.796 308.805V315.512H306.089V308.805H312.796ZM326.21 308.805V315.512H319.503V308.805H326.21ZM332.918 308.805V315.512H326.21V308.805H332.918ZM339.625 308.805V315.512H332.918V308.805H339.625ZM339.625 315.512V322.22H332.918V315.512H339.625ZM332.918 315.512V322.22H326.21V315.512H332.918ZM326.21 315.512V322.22H319.503V315.512H326.21ZM312.796 315.512V322.22H306.089V315.512H312.796ZM312.796 295.39V302.098H306.089V295.39H312.796ZM326.21 295.39V302.098H319.503V295.39H326.21ZM332.918 295.39V302.098H326.21V295.39H332.918ZM339.625 295.39V302.098H332.918V295.39H339.625ZM339.625 302.098V308.805H332.918V302.098H339.625ZM332.918 302.098V308.805H326.21V302.098H332.918ZM326.21 302.098V308.805H319.503V302.098H326.21ZM312.796 302.098V308.805H306.089V302.098H312.796ZM312.796 322.22V328.927H306.089V322.22H312.796ZM326.21 322.22V328.927H319.503V322.22H326.21ZM332.918 322.22V328.927H326.21V322.22H332.918ZM339.625 322.22V328.927H332.918V322.22H339.625ZM366.454 308.805V315.512H359.747V308.805H366.454ZM339.625 328.927V335.634H332.918V328.927H339.625ZM299.381 295.39V302.098H292.674V295.39H299.381ZM306.089 295.39V302.098H299.381V295.39H306.089ZM299.381 288.683V295.39H292.674V288.683H299.381ZM306.089 302.098V308.805H299.381V302.098H306.089ZM306.089 308.805V315.512H299.381V308.805H306.089ZM306.089 315.512V322.22H299.381V315.512H306.089ZM306.089 322.22V328.927H299.381V322.22H306.089ZM299.381 322.22V328.927H292.674V322.22H299.381ZM299.381 315.512V322.22H292.674V315.512H299.381ZM299.381 308.805V315.512H292.674V308.805H299.381ZM299.381 302.098V308.805H292.674V302.098H299.381ZM319.503 228.317V235.024H312.796V228.317H319.503ZM319.503 235.024V241.732H312.796V235.024H319.503ZM319.503 241.732V248.439H312.796V241.732H319.503ZM319.503 248.439V255.146H312.796V248.439H319.503ZM319.503 255.146V261.854H312.796V255.146H319.503ZM319.503 295.39V302.098H312.796V295.39H319.503ZM319.503 302.098V308.805H312.796V302.098H319.503ZM319.503 308.805V315.512H312.796V308.805H319.503ZM319.503 315.512V322.22H312.796V315.512H319.503ZM319.503 322.22V328.927H312.796V322.22H319.503ZM319.503 362.463V369.171H312.796V362.463H319.503ZM319.503 369.171V375.878H312.796V369.171H319.503ZM319.503 375.878V382.585H312.796V375.878H319.503ZM319.503 382.585V389.293H312.796V382.585H319.503ZM319.503 389.293V396H312.796V389.293H319.503ZM406.567 362.463V369.171H399.86V362.463H406.567ZM406.567 355.756V362.463H399.86V355.756H406.567ZM406.567 349.049V355.756H399.86V349.049H406.567ZM406.567 342.341V349.049H399.86V342.341H406.567ZM406.567 335.634V342.341H399.86V335.634H406.567ZM406.567 328.927V335.634H399.86V328.927H406.567ZM406.567 322.22V328.927H399.86V322.22H406.567ZM406.567 315.512V322.22H399.86V315.512H406.567ZM406.567 308.805V315.512H399.86V308.805H406.567ZM406.567 302.098V308.805H399.86V302.098H406.567ZM406.567 295.39V302.098H399.86V295.39H406.567ZM413.275 295.39V302.098H406.567V295.39H413.275ZM413.275 302.098V308.805H406.567V302.098H413.275ZM413.275 308.805V315.512H406.567V308.805H413.275ZM413.275 315.512V322.22H406.567V315.512H413.275ZM413.275 322.22V328.927H406.567V322.22H413.275ZM413.275 328.927V335.634H406.567V328.927H413.275ZM413.275 335.634V342.341H406.567V335.634H413.275ZM419.982 342.341V349.049H413.275V342.341H419.982ZM419.982 349.049V355.756H413.275V349.049H419.982ZM419.982 355.756V362.463H413.275V355.756H419.982ZM419.982 362.463V369.171H413.275V362.463H419.982ZM419.982 369.171V375.878H413.275V369.171H419.982ZM419.982 375.878V382.585H413.275V375.878H419.982ZM419.982 382.585V389.293H413.275V382.585H419.982ZM433.397 389.293V396H426.689V389.293H433.397ZM433.397 382.585V389.293H426.689V382.585H433.397ZM433.397 375.878V382.585H426.689V375.878H433.397ZM433.397 369.171V375.878H426.689V369.171H433.397ZM433.397 362.463V369.171H426.689V362.463H433.397ZM433.397 355.756V362.463H426.689V355.756H433.397ZM433.397 349.049V355.756H426.689V349.049H433.397ZM433.397 342.341V349.049H426.689V342.341H433.397ZM426.689 342.341V349.049H419.982V342.341H426.689ZM426.689 335.634V342.341H419.982V335.634H426.689ZM426.689 349.049V355.756H419.982V349.049H426.689ZM426.689 355.756V362.463H419.982V355.756H426.689ZM426.689 362.463V369.171H419.982V362.463H426.689ZM426.689 369.171V375.878H419.982V369.171H426.689ZM426.689 375.878V382.585H419.982V375.878H426.689ZM426.689 382.585V389.293H419.982V382.585H426.689ZM413.275 375.878V382.585H406.567V375.878H413.275ZM413.275 369.171V375.878H406.567V369.171H413.275ZM413.275 362.463V369.171H406.567V362.463H413.275ZM413.275 355.756V362.463H406.567V355.756H413.275ZM413.275 349.049V355.756H406.567V349.049H413.275ZM413.275 342.341V349.049H406.567V342.341H413.275ZM406.567 288.683V295.39H399.86V288.683H406.567ZM426.689 288.683V295.39H419.982V288.683H426.689ZM426.689 295.39V302.098H419.982V295.39H426.689ZM426.689 302.098V308.805H419.982V302.098H426.689ZM426.689 308.805V315.512H419.982V308.805H426.689ZM426.689 315.512V322.22H419.982V315.512H426.689ZM433.397 322.22V328.927H426.689V322.22H433.397ZM433.397 328.927V335.634H426.689V328.927H433.397ZM433.397 335.634V342.341H426.689V335.634H433.397ZM433.397 315.512V322.22H426.689V315.512H433.397ZM433.397 308.805V315.512H426.689V308.805H433.397ZM433.397 302.098V308.805H426.689V302.098H433.397ZM433.397 295.39V302.098H426.689V295.39H433.397ZM433.397 288.683V295.39H426.689V288.683H433.397ZM413.275 288.683V295.39H406.567V288.683H413.275ZM419.982 288.683V295.39H413.275V288.683H419.982ZM419.982 295.39V302.098H413.275V295.39H419.982ZM419.982 302.098V308.805H413.275V302.098H419.982ZM419.982 308.805V315.512H413.275V308.805H419.982ZM419.982 315.512V322.22H413.275V315.512H419.982ZM419.982 322.22V328.927H413.275V322.22H419.982ZM419.982 328.927V335.634H413.275V328.927H419.982ZM419.982 335.634V342.341H413.275V335.634H419.982ZM426.689 328.927V335.634H419.982V328.927H426.689ZM426.689 322.22V328.927H419.982V322.22H426.689ZM487.055 389.293V396H480.348V389.293H487.055ZM487.055 382.585V389.293H480.348V382.585H487.055ZM487.055 375.878V382.585H480.348V375.878H487.055ZM487.055 369.171V375.878H480.348V369.171H487.055ZM487.055 362.463V369.171H480.348V362.463H487.055ZM487.055 355.756V362.463H480.348V355.756H487.055ZM487.055 349.049V355.756H480.348V349.049H487.055ZM500.47 349.049V355.756H493.762V349.049H500.47ZM500.47 355.756V362.463H493.762V355.756H500.47ZM500.47 362.463V369.171H493.762V362.463H500.47ZM500.47 369.171V375.878H493.762V369.171H500.47ZM500.47 375.878V382.585H493.762V375.878H500.47ZM500.47 382.585V389.293H493.762V382.585H500.47ZM513.884 362.463V369.171H507.177V362.463H513.884ZM513.884 355.756V362.463H507.177V355.756H513.884ZM513.884 349.049V355.756H507.177V349.049H513.884ZM507.177 349.049V355.756H500.47V349.049H507.177ZM507.177 355.756V362.463H500.47V355.756H507.177ZM507.177 362.463V369.171H500.47V362.463H507.177ZM507.177 369.171V375.878H500.47V369.171H507.177ZM507.177 375.878V382.585H500.47V375.878H507.177ZM493.762 382.585V389.293H487.055V382.585H493.762ZM493.762 375.878V382.585H487.055V375.878H493.762ZM493.762 369.171V375.878H487.055V369.171H493.762ZM493.762 362.463V369.171H487.055V362.463H493.762ZM493.762 355.756V362.463H487.055V355.756H493.762ZM493.762 349.049V355.756H487.055V349.049H493.762ZM440.104 389.293V396H433.397V389.293H440.104ZM446.811 389.293V396H440.104V389.293H446.811ZM453.518 389.293V396H446.811V389.293H453.518ZM460.226 389.293V396H453.518V389.293H460.226ZM473.64 389.293V396H466.933V389.293H473.64ZM480.348 389.293V396H473.64V389.293H480.348ZM480.348 382.585V389.293H473.64V382.585H480.348ZM473.64 382.585V389.293H466.933V382.585H473.64ZM460.226 382.585V389.293H453.518V382.585H460.226ZM453.518 382.585V389.293H446.811V382.585H453.518ZM446.811 382.585V389.293H440.104V382.585H446.811ZM440.104 382.585V389.293H433.397V382.585H440.104ZM440.104 375.878V382.585H433.397V375.878H440.104ZM446.811 375.878V382.585H440.104V375.878H446.811ZM453.518 375.878V382.585H446.811V375.878H453.518ZM460.226 375.878V382.585H453.518V375.878H460.226ZM473.64 375.878V382.585H466.933V375.878H473.64ZM480.348 375.878V382.585H473.64V375.878H480.348ZM480.348 369.171V375.878H473.64V369.171H480.348ZM473.64 369.171V375.878H466.933V369.171H473.64ZM460.226 369.171V375.878H453.518V369.171H460.226ZM453.518 369.171V375.878H446.811V369.171H453.518ZM446.811 369.171V375.878H440.104V369.171H446.811ZM440.104 369.171V375.878H433.397V369.171H440.104ZM440.104 362.463V369.171H433.397V362.463H440.104ZM480.348 362.463V369.171H473.64V362.463H480.348ZM507.177 261.854V255.146H513.884V261.854H507.177ZM507.177 268.561V261.854H513.884V268.561H507.177ZM507.177 275.268V268.561H513.884V275.268H507.177ZM493.762 275.268V268.561H500.47V275.268H493.762ZM493.762 268.561V261.854H500.47V268.561H493.762ZM493.762 261.854V255.146H500.47V261.854H493.762ZM493.762 255.146V248.439H500.47V255.146H493.762ZM493.762 248.439V241.732H500.47V248.439H493.762ZM493.762 241.732V235.024H500.47V241.732H493.762ZM480.348 235.024V228.317H487.055V235.024H480.348ZM480.348 241.732V235.024H487.055V241.732H480.348ZM480.348 248.439V241.732H487.055V248.439H480.348ZM480.348 255.146V248.439H487.055V255.146H480.348ZM480.348 261.854V255.146H487.055V261.854H480.348ZM480.348 268.561V261.854H487.055V268.561H480.348ZM480.348 275.268V268.561H487.055V275.268H480.348ZM487.055 275.268V268.561H493.762V275.268H487.055ZM487.055 268.561V261.854H493.762V268.561H487.055ZM487.055 261.854V255.146H493.762V261.854H487.055ZM487.055 255.146V248.439H493.762V255.146H487.055ZM487.055 248.439V241.732H493.762V248.439H487.055ZM487.055 241.732V235.024H493.762V241.732H487.055ZM500.47 248.439V241.732H507.177V248.439H500.47ZM500.47 255.146V248.439H507.177V255.146H500.47ZM500.47 261.854V255.146H507.177V261.854H500.47ZM500.47 268.561V261.854H507.177V268.561H500.47ZM500.47 275.268V268.561H507.177V275.268H500.47ZM426.689 235.024V228.317H433.397V235.024H426.689ZM426.689 241.732V235.024H433.397V241.732H426.689ZM426.689 248.439V241.732H433.397V248.439H426.689ZM426.689 255.146V248.439H433.397V255.146H426.689ZM426.689 261.854V255.146H433.397V261.854H426.689ZM426.689 268.561V261.854H433.397V268.561H426.689ZM426.689 275.268V268.561H433.397V275.268H426.689ZM413.275 275.268V268.561H419.982V275.268H413.275ZM413.275 268.561V261.854H419.982V268.561H413.275ZM413.275 261.854V255.146H419.982V261.854H413.275ZM413.275 255.146V248.439H419.982V255.146H413.275ZM413.275 248.439V241.732H419.982V248.439H413.275ZM413.275 241.732V235.024H419.982V241.732H413.275ZM399.86 261.854V255.146H406.567V261.854H399.86ZM399.86 268.561V261.854H406.567V268.561H399.86ZM399.86 275.268V268.561H406.567V275.268H399.86ZM406.567 275.268V268.561H413.275V275.268H406.567ZM406.567 268.561V261.854H413.275V268.561H406.567ZM406.567 261.854V255.146H413.275V261.854H406.567ZM406.567 255.146V248.439H413.275V255.146H406.567ZM406.567 248.439V241.732H413.275V248.439H406.567ZM419.982 241.732V235.024H426.689V241.732H419.982ZM419.982 248.439V241.732H426.689V248.439H419.982ZM419.982 255.146V248.439H426.689V255.146H419.982ZM419.982 261.854V255.146H426.689V261.854H419.982ZM419.982 268.561V261.854H426.689V268.561H419.982ZM419.982 275.268V268.561H426.689V275.268H419.982ZM473.64 235.024V228.317H480.348V235.024H473.64ZM466.933 235.024V228.317H473.64V235.024H466.933ZM453.518 235.024V228.317H460.226V235.024H453.518ZM446.811 235.024V228.317H453.518V235.024H446.811ZM440.104 235.024V228.317H446.811V235.024H440.104ZM433.397 235.024V228.317H440.104V235.024H433.397ZM433.397 241.732V235.024H440.104V241.732H433.397ZM440.104 241.732V235.024H446.811V241.732H440.104ZM446.811 241.732V235.024H453.518V241.732H446.811ZM453.518 241.732V235.024H460.226V241.732H453.518ZM466.933 241.732V235.024H473.64V241.732H466.933ZM473.64 241.732V235.024H480.348V241.732H473.64ZM473.64 248.439V241.732H480.348V248.439H473.64ZM466.933 248.439V241.732H473.64V248.439H466.933ZM453.518 248.439V241.732H460.226V248.439H453.518ZM446.811 248.439V241.732H453.518V248.439H446.811ZM440.104 248.439V241.732H446.811V248.439H440.104ZM433.397 248.439V241.732H440.104V248.439H433.397ZM433.397 255.146V248.439H440.104V255.146H433.397ZM440.104 255.146V248.439H446.811V255.146H440.104ZM446.811 255.146V248.439H453.518V255.146H446.811ZM453.518 255.146V248.439H460.226V255.146H453.518ZM466.933 255.146V248.439H473.64V255.146H466.933ZM473.64 255.146V248.439H480.348V255.146H473.64ZM473.64 261.854V255.146H480.348V261.854H473.64ZM433.397 261.854V255.146H440.104V261.854H433.397ZM406.567 281.976V288.683H399.86V281.976H406.567ZM413.275 281.976V288.683H406.567V281.976H413.275ZM406.567 275.268V281.976H399.86V275.268H406.567ZM426.689 275.268V281.976H419.982V275.268H426.689ZM426.689 281.976V288.683H419.982V281.976H426.689ZM433.397 281.976V288.683H426.689V281.976H433.397ZM433.397 275.268V281.976H426.689V275.268H433.397ZM413.275 275.268V281.976H406.567V275.268H413.275ZM419.982 275.268V281.976H413.275V275.268H419.982ZM419.982 281.976V288.683H413.275V281.976H419.982ZM460.226 302.098V308.805H453.518V302.098H460.226ZM460.226 308.805V315.512H453.518V308.805H460.226ZM473.64 308.805V315.512H466.933V308.805H473.64ZM480.348 308.805V315.512H473.64V308.805H480.348ZM487.055 308.805V315.512H480.348V308.805H487.055ZM493.762 308.805V315.512H487.055V308.805H493.762ZM500.47 308.805V315.512H493.762V308.805H500.47ZM507.177 308.805V315.512H500.47V308.805H507.177ZM513.884 302.098V308.805H507.177V302.098H513.884ZM507.177 302.098V308.805H500.47V302.098H507.177ZM500.47 302.098V308.805H493.762V302.098H500.47ZM493.762 302.098V308.805H487.055V302.098H493.762ZM487.055 302.098V308.805H480.348V302.098H487.055ZM480.348 302.098V308.805H473.64V302.098H480.348ZM473.64 302.098V308.805H466.933V302.098H473.64ZM513.884 308.805V315.512H507.177V308.805H513.884ZM513.884 315.512V322.22H507.177V315.512H513.884ZM513.884 322.22V328.927H507.177V322.22H513.884ZM513.884 328.927V335.634H507.177V328.927H513.884ZM513.884 335.634V342.341H507.177V335.634H513.884ZM513.884 342.341V349.049H507.177V342.341H513.884ZM507.177 342.341V349.049H500.47V342.341H507.177ZM500.47 342.341V349.049H493.762V342.341H500.47ZM493.762 342.341V349.049H487.055V342.341H493.762ZM487.055 342.341V349.049H480.348V342.341H487.055ZM487.055 335.634V342.341H480.348V335.634H487.055ZM493.762 335.634V342.341H487.055V335.634H493.762ZM500.47 335.634V342.341H493.762V335.634H500.47ZM507.177 335.634V342.341H500.47V335.634H507.177ZM507.177 328.927V335.634H500.47V328.927H507.177ZM500.47 328.927V335.634H493.762V328.927H500.47ZM493.762 328.927V335.634H487.055V328.927H493.762ZM487.055 328.927V335.634H480.348V328.927H487.055ZM460.226 315.512V322.22H453.518V315.512H460.226ZM460.226 322.22V328.927H453.518V322.22H460.226ZM473.64 322.22V328.927H466.933V322.22H473.64ZM480.348 322.22V328.927H473.64V322.22H480.348ZM487.055 322.22V328.927H480.348V322.22H487.055ZM493.762 322.22V328.927H487.055V322.22H493.762ZM500.47 322.22V328.927H493.762V322.22H500.47ZM507.177 322.22V328.927H500.47V322.22H507.177ZM507.177 315.512V322.22H500.47V315.512H507.177ZM500.47 315.512V322.22H493.762V315.512H500.47ZM493.762 315.512V322.22H487.055V315.512H493.762ZM487.055 315.512V322.22H480.348V315.512H487.055ZM480.348 315.512V322.22H473.64V315.512H480.348ZM473.64 315.512V322.22H466.933V315.512H473.64ZM446.811 362.463V369.171H440.104V362.463H446.811ZM453.518 362.463V369.171H446.811V362.463H453.518ZM460.226 362.463V369.171H453.518V362.463H460.226ZM473.64 362.463V369.171H466.933V362.463H473.64ZM480.348 355.756V362.463H473.64V355.756H480.348ZM440.104 355.756V362.463H433.397V355.756H440.104ZM446.811 255.146V261.854H440.104V255.146H446.811ZM453.518 255.146V261.854H446.811V255.146H453.518ZM460.226 255.146V261.854H453.518V255.146H460.226ZM473.64 255.146V261.854H466.933V255.146H473.64ZM440.104 261.854V268.561H433.397V261.854H440.104ZM480.348 261.854V268.561H473.64V261.854H480.348ZM487.055 275.268V281.976H480.348V275.268H487.055ZM493.762 275.268V281.976H487.055V275.268H493.762ZM500.47 275.268V281.976H493.762V275.268H500.47ZM507.177 275.268V281.976H500.47V275.268H507.177ZM513.884 275.268V281.976H507.177V275.268H513.884ZM460.226 328.927V335.634H453.518V328.927H460.226ZM473.64 328.927V335.634H466.933V328.927H473.64ZM480.348 328.927V335.634H473.64V328.927H480.348ZM466.933 228.317V235.024H460.226V228.317H466.933ZM466.933 235.024V241.732H460.226V235.024H466.933ZM466.933 241.732V248.439H460.226V241.732H466.933ZM466.933 248.439V255.146H460.226V248.439H466.933ZM466.933 255.146V261.854H460.226V255.146H466.933ZM466.933 302.098V308.805H460.226V302.098H466.933ZM466.933 308.805V315.512H460.226V308.805H466.933ZM466.933 315.512V322.22H460.226V315.512H466.933ZM466.933 322.22V328.927H460.226V322.22H466.933ZM466.933 328.927V335.634H460.226V328.927H466.933ZM466.933 362.463V369.171H460.226V362.463H466.933ZM466.933 369.171V375.878H460.226V369.171H466.933ZM466.933 375.878V382.585H460.226V375.878H466.933ZM466.933 382.585V389.293H460.226V382.585H466.933ZM466.933 389.293V396H460.226V389.293H466.933Z" fill="#2F2F2F"/>
</svg>
